<svg xmlns="http://www.w3.org/2000/svg" viewBox="0 0 102.73 164.25"><defs><style>.cls-1{fill:#fff;}</style></defs><title>Recurso 24</title><g id="Capa_2" data-name="Capa 2"><g id="Figtex2"><path class="cls-1" d="M41,105.22H61q4.26,0,4.79-5.65v-.74q0-6-6.81-6H39.82v11.92l.42.85Z"/><path class="cls-1" d="M60.57,117.24H39.82v16.29h20q8,0,8-7.13v-1.6Q67.81,118.43,60.57,117.24Z"/><path class="cls-1" d="M13.18,0A13.18,13.18,0,0,0,0,13.18V151.07a13.24,13.24,0,0,0,13.18,13.18H89.55a13.33,13.33,0,0,0,3.3-.43,13.18,13.18,0,0,0,9.88-12.75V41.89L60.85,0ZM79.31,127.14q0,13.21-16,17.57c-.21.28-1.27.43-3.19.43H56.64v10c0,.5-.29.75-.86.75H50.25c-.57,0-.85-.25-.85-.75v-10H45v10c0,.5-.28.75-.85.75H39a.66.66,0,0,1-.75-.75v-10H24.27c-.56,0-.85-.25-.85-.75v-9.26a.78.78,0,0,1,.85-.75h3.52V93.18H24.27c-.56,0-.85-.24-.85-.74V81.26H38.65V68.91H45c.5.08.75.32.75.75v11.6h4.47V69.66c.07-.5.32-.75.74-.75h5.65c.49.08.74.32.74.75v11.6h.43q19.57,1.81,19.58,16v2q0,8-6.06,12.35V112q3.51,0,7.24,8.41.74,1.69.74,6.39Zm-24-79.67V5.58L97.16,47.47Z"/></g></g></svg>