<svg xmlns="http://www.w3.org/2000/svg" xmlns:xlink="http://www.w3.org/1999/xlink" viewBox="0 0 204.31 181.4"><defs><style>.cls-1{fill:url(#Degradado_sin_nombre_12);}.cls-2{fill:url(#Degradado_sin_nombre_2);}.cls-3{fill:url(#Degradado_sin_nombre_65);}.cls-4{fill:url(#Degradado_sin_nombre_65-3);}.cls-5{fill:url(#Degradado_sin_nombre_65-23);}.cls-6{fill:url(#Degradado_sin_nombre_65-51);}.cls-7{fill:url(#Degradado_sin_nombre_65-59);}.cls-8{fill:url(#Degradado_sin_nombre_11);}.cls-9{fill:#fff;}</style><linearGradient id="Degradado_sin_nombre_12" x1="45.53" y1="543.19" x2="229.13" y2="543.19" gradientTransform="matrix(1, 0, 0, -1, -35.17, 633.89)" gradientUnits="userSpaceOnUse"><stop offset="0" stop-color="#d6860b"/><stop offset="0.32" stop-color="#291c00"/><stop offset="0.51" stop-color="#d6860b"/><stop offset="0.7" stop-color="#291c00"/><stop offset="1" stop-color="#d6860b"/></linearGradient><linearGradient id="Degradado_sin_nombre_2" x1="27.48" y1="572.93" x2="213.89" y2="759.34" gradientTransform="matrix(1, 0, 0, -1, 0, 738.31)" gradientUnits="userSpaceOnUse"><stop offset="0" stop-color="#382303"/><stop offset="0.32" stop-color="#c97e16"/><stop offset="0.51" stop-color="#382303"/><stop offset="0.7" stop-color="#c97e16"/><stop offset="1" stop-color="#382303"/></linearGradient><radialGradient id="Degradado_sin_nombre_65" cx="58.72" cy="451.09" r="234.91" gradientTransform="matrix(1, 0, 0, -1, -35.17, 633.89)" gradientUnits="userSpaceOnUse"><stop offset="0" stop-color="#ff9700"/><stop offset="0.32" stop-color="#ffdb4d"/><stop offset="0.51" stop-color="#ff9700"/><stop offset="0.7" stop-color="#ffdb4d"/><stop offset="0.73" stop-color="#ffdc4f"/><stop offset="0.74" stop-color="#ffdf56"/><stop offset="0.74" stop-color="#ffe461"/><stop offset="0.75" stop-color="#ffeb72"/><stop offset="0.75" stop-color="#fff17f"/><stop offset="0.76" stop-color="#ffeb76"/><stop offset="0.77" stop-color="#ffd457"/><stop offset="0.79" stop-color="#ffc13b"/><stop offset="0.81" stop-color="#ffb125"/><stop offset="0.83" stop-color="#ffa614"/><stop offset="0.86" stop-color="#ff9d09"/><stop offset="0.89" stop-color="#ff9802"/><stop offset="1" stop-color="#ff9700"/></radialGradient><radialGradient id="Degradado_sin_nombre_65-3" cx="132.54" cy="651.8" r="192.93" xlink:href="#Degradado_sin_nombre_65"/><radialGradient id="Degradado_sin_nombre_65-23" cx="132.54" cy="651.8" r="192.93" xlink:href="#Degradado_sin_nombre_65"/><radialGradient id="Degradado_sin_nombre_65-51" cx="126.83" cy="517.21" r="0.01" xlink:href="#Degradado_sin_nombre_65"/><radialGradient id="Degradado_sin_nombre_65-59" cx="147.85" cy="517.21" r="0.01" xlink:href="#Degradado_sin_nombre_65"/><radialGradient id="Degradado_sin_nombre_11" cx="132.54" cy="651.8" r="192.93" gradientTransform="matrix(1, 0, 0, -1, -35.17, 633.89)" gradientUnits="userSpaceOnUse"><stop offset="0" stop-color="#3adbff"/><stop offset="0.32" stop-color="#87f5ff"/><stop offset="0.51" stop-color="#3adbff"/><stop offset="0.7" stop-color="#87f5ff"/><stop offset="0.72" stop-color="#86f4fd"/><stop offset="0.73" stop-color="#82f0f6"/><stop offset="0.73" stop-color="#7ceaeb"/><stop offset="0.74" stop-color="#73e0da"/><stop offset="0.74" stop-color="#67d4c4"/><stop offset="0.74" stop-color="#59c5a8"/><stop offset="0.75" stop-color="#47b388"/><stop offset="0.75" stop-color="#34a064"/><stop offset="0.75" stop-color="#228d42"/><stop offset="0.76" stop-color="#269b64"/><stop offset="0.77" stop-color="#2baa88"/><stop offset="0.79" stop-color="#2fb7a8"/><stop offset="0.8" stop-color="#32c2c4"/><stop offset="0.82" stop-color="#35ccda"/><stop offset="0.84" stop-color="#37d3eb"/><stop offset="0.87" stop-color="#39d7f6"/><stop offset="0.9" stop-color="#3adafd"/><stop offset="1" stop-color="#3adbff"/></radialGradient></defs><title>Recurso 9</title><g id="Capa_2" data-name="Capa 2"><g id="COIN"><g id="Capa_40" data-name="Capa 40"><path class="cls-1" d="M192.39,84.78l-40-69.26A11.83,11.83,0,0,0,142.16,9.6h-80a11.83,11.83,0,0,0-10.25,5.92l-40,69.26a11.85,11.85,0,0,0,0,11.83l40,69.27a11.83,11.83,0,0,0,10.25,5.91h80a11.82,11.82,0,0,0,10.24-5.91l40-69.27A12,12,0,0,0,192.39,84.78Z"/></g><g id="Capa_22_copia_3" data-name="Capa 22 copia 3"><circle class="cls-2" cx="102.17" cy="90.7" r="74.51"/></g><g id="Capa_38" data-name="Capa 38"><path class="cls-3" d="M68.93,102h-.71v1.36a7.7,7.7,0,0,1,.71-.33Z"/><path class="cls-3" d="M189.47,85,150.78,18a11.46,11.46,0,0,0-9.92-5.72H63.47A11.44,11.44,0,0,0,53.56,18L14.86,85a11.43,11.43,0,0,0,0,11.45l38.7,67a11.47,11.47,0,0,0,9.91,5.73h77.39a11.49,11.49,0,0,0,9.92-5.73l38.69-67A11.41,11.41,0,0,0,189.47,85ZM170,59.78a74.07,74.07,0,0,1,6.67,28.72H170Zm-5.06-9.27c.18.27.36.55.53.83v2.23c-.15-.45-.34-.9-.53-1.35Zm-1.34-2,.63.94v1.24c-.17-.35-.35-.7-.53-1a1.62,1.62,0,0,1-.1-.18Zm-1.24-1.75c.18.25.36.49.53.74v.75l-.47-.75-.06-.08Zm-7.65-8.89a74.27,74.27,0,0,1,6.78,7.73v.59c-.19-.26-.4-.53-.64-.81l-.76-.87a2.27,2.27,0,0,0-4,1.86l.19,1.15c.07.44.13.95.19,1.61s.09,1.08.13,1.66q.09,1.64,0,3.33c0,.55,0,1.1-.09,1.64s-.1,1.06-.18,1.63a23.76,23.76,0,0,1-.63,3.13c-.12.46-.27.95-.46,1.47s-.37.93-.58,1.39a14.75,14.75,0,0,1-.71,1.31h0v0a.83.83,0,0,0-.08.12v0l-.1.15-.16.23-.24.34-.22.28a11,11,0,0,1-.91,1l-.07.06c-.07.08-.18.17-.29.27l-.18.15-.4.32-.43.31-.38.25h0l0,0-.48.28a11.63,11.63,0,0,1-1.24.58l0,0a13.71,13.71,0,0,1-2.82.78l-.34,0-.42.06-.31,0h0l-.46,0-.62,0h0l-.85.07,11.82-11.79ZM147,31.17a75,75,0,0,1,7,6v21L141.78,70.31c-1,.06-1.84.1-2.63.12h0l-.33,0,12.05-12V35.16L147,31.29Zm0,15.63V32.3l3.16,3.16V58.11L137.78,70.47h-.63c-.45,0-.93,0-1.41,0-1.15,0-2.28-.09-3.34-.2l-.78-.09h-.1V62.26L146.88,46.9Zm-3.78-18.28,3.07,3.06V46.51L130.92,61.87l-.11.1v8.08l-.88-.14-.15,0V50.26h0V43.39h9.39l4-4.11Zm-7.65-4.34h.24A76.84,76.84,0,0,1,142.5,28V39l-3.62,3.7h-5.57V42.6h-4.23v.08h0V69.75l-.67-.14-.35-.07h0l-.17,0V51.75l0,0-.1-16.4h.06V24.19h1.21V36.25h0v5.49h2.3v0h4.18ZM134.85,41h-1.74v0h-3.32V35.55h0V24.19h5.06ZM124,19.42a75.64,75.64,0,0,1,10.38,4H124Zm2.09,32.94V24.19h1.08v8.4l-.08-.08.08,14.26h0v22.6c-.34-.06-.66-.11-1-.14h-.08V52.36ZM124,54.57h0l.08-23.09h0V28.05l.65.07a.91.91,0,0,1,0-.17,3.41,3.41,0,0,1,.1-.54l-.76-.07V24.19h1.27V53.83l0,0V69.19h0l-.47,0a5.63,5.63,0,0,0-.93.14Zm-1.73-35.65c.34.1.69.19,1,.3v5h.1v3.48l-.09,25h0V69.56l-.33.13a6,6,0,0,0-.88.44l-.14.08h0l-.09,0-.13-.09-.08,0-.54-.32a17.29,17.29,0,0,0-2.81-1.27,13.42,13.42,0,0,0-3.13-.72,14.72,14.72,0,0,0-1.49-.08c-.32,0-.67,0-1,0V54.58L122.24,45Zm-2-.52c.42.1.85.21,1.27.33v26l-9.63,9.57V67.72h-.11a26,26,0,0,0-2.74.54l-.12,0-.15,0V54.58l11.47-11.47Zm-11.53-1.93,1.22.12V33.71A1.65,1.65,0,0,0,108.73,35Zm1.61,17.9a.94.94,0,1,1-.94.94h0a.94.94,0,0,1,.94-.94Zm-3.51-18,1.19.08V34.93l-1.19-1.19Zm-9.49,0c1-.06,2-.11,3.09-.14V39.28l7.32,7.32a1.67,1.67,0,1,0,2.35-.21,1.66,1.66,0,0,0-1.78-.23L101.14,39V16.19h1.2V37.79l5.52,5.12a1.65,1.65,0,1,0,.5-.51l-5.31-4.92V16.19l1.12,0V35.37l3.75,3.76a1.64,1.64,0,0,0,2.63,1.95,1.64,1.64,0,0,0-2.09-2.42l-3.58-3.59V16.24l1.23.05V34l2.62,2.61v-1a1.65,1.65,0,1,0,1.93-2v-17a74,74,0,0,1,8.88,1.56V42.81l-9.23,9.24L97.34,39Zm10.73,31.31a.94.94,0,1,1,.94.94h0a1,1,0,0,1-.94-.94Zm.24-3.87a.94.94,0,1,1,.94.94h0a.94.94,0,0,1-.94-.94Zm0-3.68a.94.94,0,1,1,.94.94.94.94,0,0,1-.94-.94ZM93.49,16.69c1-.12,2.08-.22,3.13-.3V39.28L109.8,52.56l-1.73,1.73V68.48h-.15a4.59,4.59,0,0,1-.73.06H107V63.07h0V52.47L93.49,39Zm-3.83.54c1-.17,2.07-.33,3.11-.46V39.28l13.48,13.47V68.36l-.14,0-.61-.21-.26-.1-.1,0-.18-.07V64.66s0,0,.05,0V54.28L89.66,39Zm-3.82,29.7V18c1-.23,2.07-.44,3.12-.62V39.28l3.82,3.81v7.67l4,3.82-.14,7.07a1.65,1.65,0,0,0,.71,3.22,1.65,1.65,0,0,0,0-3.22l.15-7.37-4-3.83V43.8l10.77,10.73V67.67h0a6.36,6.36,0,0,0-1-.27h0a4,4,0,0,0-.5-.06,2.07,2.07,0,0,0-.35,0h-.25a1.87,1.87,0,0,0-.34,0,4.35,4.35,0,0,0-.52.06h0a6.25,6.25,0,0,0-1,.27h0L99.2,68l-.36.12-.62.2h0l-.31.11-.15,0-.16.05h0l-.22,0-.24,0a4.4,4.4,0,0,1-.73-.06h0c-.29,0-.61-.12-1-.2l-.12,0a23.58,23.58,0,0,0-2.88-.55,13.73,13.73,0,0,0-1.7-.1,14.87,14.87,0,0,0-1.49.08,14.07,14.07,0,0,0-3.13.72,16.08,16.08,0,0,0-2.8,1.28l-.55.31-.07,0-.15.09-.07,0h0l-.14-.08A6.57,6.57,0,0,0,81,69.54l-.11,0a6.24,6.24,0,0,0-1.48-.28,4.52,4.52,0,0,0-.52,0,10.46,10.46,0,0,0-1.93.21l-1,.21-.72.14-.9.16L78,66.27H88.91a1.65,1.65,0,1,0,0-.71H77.68l-4.56,4.55-1.19.15c-1.07.1-2.19.17-3.34.2l-1.41,0c-.69,0-1.36,0-2,0h0c-1,0-2.09-.09-3.44-.18l-1.11-.1h0l-.62,0-.19,0H66.5l7.65-7.65H88.91a1.65,1.65,0,1,0,1.26-2,1.63,1.63,0,0,0-1.26,1.25h-15l-7.65,7.65H58.56l-.47.47a13.42,13.42,0,0,1-2.47-.72l0,0a10.78,10.78,0,0,1-1.24-.58l-.48-.28,0,0h0L53.44,68l-.07,0L55,66.27H66.5L85.73,47ZM97,62.32a.94.94,0,1,1-.94.94.94.94,0,0,1,.94-.94Zm-7.39,3.59a.94.94,0,1,1,.94.94h0A.94.94,0,0,1,89.59,65.91Zm0-3.83a.94.94,0,1,1,.94.94h0A.94.94,0,0,1,89.59,62.08ZM84,18.43l1.16-.28V46.64L66.21,65.55H54.74l-1.93,1.94-.18-.16a1.39,1.39,0,0,0-.19-.15l-.29-.27-.06-.06a8.63,8.63,0,0,1-.71-.77l1.75-1.81H64.64L84,45ZM82,43.11V18.94l1.24-.33V44.74L64.35,63.56H52.82l-1.89,2-.23-.31c-.05-.06-.1-.15-.15-.22l-.1-.16,0,0-.07-.12v0h0c-.17-.27-.33-.56-.49-.86l1.35-1.35H62.68L81.91,43.21ZM80.14,19.5l1.16-.35V42.81L62.38,61.73H50.91l-1.38,1.38c-.17-.38-.33-.76-.47-1.14s-.2-.59-.29-.87l.45-.43H60.69L80.14,41.19Zm-2,19.78V20.13l1.24-.41V40.9L60.39,60H48.93l-.38.37c-.15-.56-.27-1.13-.38-1.72H58.86L78.08,39.38ZM70.54,23.21c1-.48,2.06-.94,3.11-1.37V39l-5.84,5.84a1.65,1.65,0,0,0-.67-2.23,1.72,1.72,0,0,0-.43-.16v-7l3.83-3.83ZM67.29,44.05a.94.94,0,1,1-.94-.94h0A.94.94,0,0,1,67.29,44.05ZM47.59,40c.45-.49.9-1,1.37-1.44V48.66h.71V37.82A75.36,75.36,0,0,1,61.3,28.38l-6.77,6.78V46a1.64,1.64,0,1,0,.71,0V35.46l7.65-7.65v-.44c1-.64,2-1.25,3.11-1.83v5.8L58.35,39v3.45a1.65,1.65,0,1,0,.71,0V39.28l7.65-7.65V25.15c1-.56,2.06-1.09,3.11-1.6v7.79L66,35.16v7.27a1.65,1.65,0,0,0,.7,3.23,1.59,1.59,0,0,0,.43-.16l-4.75,4.75H51.06V51H62.68L74.36,39.28V21.55c1-.41,2.07-.81,3.11-1.18V39l-13,13H51.06v.71H63.79l-1.41,1.41H51.06v.71H61.67L58.56,57.9H48L48,57.36c-.07-.57-.13-1.11-.17-1.63s-.08-1.09-.09-1.64c0-1.13,0-2.25,0-3.33,0-.57.08-1.13.13-1.67s.12-1.16.19-1.6h0c0-.11.07-.39.19-1.16a2.25,2.25,0,0,0-.64-2Zm7.65,6.8h0A.93.93,0,0,1,55.75,48,.94.94,0,1,1,54,47.28a.93.93,0,0,1,.52-.51h.71Zm3.46-3.66a.94.94,0,1,1,0,1.88.94.94,0,0,1-.94-.94h0A.93.93,0,0,1,58.7,43.12Zm-13.16-.84c.43-.51.88-1,1.33-1.52v3.12a2.21,2.21,0,0,0-.88-.19,2.3,2.3,0,0,0-.45.05ZM44.92,45l.12-.12,0,0,.1-.07,0,0,.11-.07,0,0a.94.94,0,0,1,.15-.06,1.4,1.4,0,0,1,1.34.23h0L47,45h0a1.34,1.34,0,0,1,.11.14h0a1.3,1.3,0,0,1,.1.15h0a1.11,1.11,0,0,1,.07.16v0a1.09,1.09,0,0,1,0,.17h0a.41.41,0,0,1,0,.16v0a.86.86,0,0,1,0,.16v0a1.11,1.11,0,0,1,0,.17s0,.29-.09.58l0,.1,0,.21a.19.19,0,0,1,0,.08c0,.11,0,.19,0,.19s0,.17-.05.26,0,0,0,0l0,.29v0c0,.31-.08.65-.12,1q-.07.83-.12,1.71c-.07,1.1-.08,2.25,0,3.4,0,.56,0,1.13.09,1.69s.1,1.08.18,1.67c0,.14,0,.28.07.42h0a24.57,24.57,0,0,0,.58,2.81l.09.29h0c0,.13.07.25.11.37h0l.12.39h0c.06.15.11.33.17.5.18.48.39,1,.61,1.45l0,0h0c.11.23.22.45.34.66h0c.13.24.26.46.39.68v0l.11.18.1.14c.05.09.12.19.18.28l.24.34.24.31.14.17h0l.14.17h0a10.14,10.14,0,0,0,.71.76l0,0,.34.31.2.17.17.14.26.21.26.19.2.14.4.26.06,0,.51.3a13,13,0,0,0,1.36.64h0a14.76,14.76,0,0,0,2.08.65h0l.41.09h0l.41.08h.08l.35.05.45.07.31,0,.51,0,.63,0,1.12.1c1.35.09,2.46.15,3.47.18.66,0,1.34,0,2,0,.46,0,.94,0,1.43,0,1.17,0,2.32-.1,3.4-.21h.13l1.15-.14h0c.65-.09,1.33-.21,2.08-.35l.73-.15,1-.2a9.93,9.93,0,0,1,1.81-.2,3.62,3.62,0,0,1,.46,0,5.66,5.66,0,0,1,1.29.25l.07,0a7.59,7.59,0,0,1,1.12.52l.57.37,0,0,.43-.28.2-.13.08,0c.17-.11.35-.21.53-.31a15.53,15.53,0,0,1,2.66-1.21,12.58,12.58,0,0,1,4.34-.75,14.3,14.3,0,0,1,1.6.09,23.51,23.51,0,0,1,2.78.53l.12,0,1,.21h0a4.59,4.59,0,0,0,.91.07l.31,0,.32,0,0,0,.14,0,.18-.06.33-.11.61-.21.36-.12c.29-.11.59-.21.9-.31h0a4.69,4.69,0,0,1,.91-.24h0l.48-.06.24,0h.25l.25,0,.46.06h0a5.51,5.51,0,0,1,.91.23h0l.29.1h0l.62.22.1,0,.26.09.62.22.33.11h.08l.1,0,.13,0,0,0,.32,0H107l.21,0a5.47,5.47,0,0,0,.9-.08h0c.22,0,.45-.08.69-.13l.34-.08.13,0a23.65,23.65,0,0,1,2.64-.51l.13,0,.58,0c.34,0,.68,0,1,0a13.31,13.31,0,0,1,1.41.07,12.86,12.86,0,0,1,2.93.68,16.33,16.33,0,0,1,2.66,1.21l.53.31.08,0,.2.13.43.29,0,0c.18-.12.37-.25.57-.36a5.68,5.68,0,0,1,.78-.39l.34-.13.07,0,.31-.08h0a4.68,4.68,0,0,1,1-.17l.42,0h0c.23,0,.45,0,.67,0s.71.09,1.07.15h0l.34.07.34.06h0l.36.08.73.14.12,0h0l.71.13,1,.16h0l.71.1h0l.78.09c1.09.11,2.24.18,3.42.21h1.42c.7,0,1.38,0,2,0s1.1,0,1.71-.08h0l.51,0h0l.53,0h0l.72,0,1.12-.09.63,0,.51-.06.32,0,.45-.07.34-.05a14.83,14.83,0,0,0,3-.83h0a10.57,10.57,0,0,0,1.08-.5h0l.27-.14.32-.19.19-.11,0,0,0,0,.39-.26.47-.33.28-.23.15-.12.2-.17.09-.08.13-.12.08-.08,0,0,0,0,.23-.23c.24-.25.49-.53.77-.87l.13-.18.1-.13.24-.34.14-.19.05-.08.09-.15s.08-.11.11-.17l0,0s0,0,0,0,.11-.18.16-.27a2.38,2.38,0,0,1,.17-.31h0c.13-.25.27-.51.4-.78.22-.48.43-1,.62-1.47s.35-1,.48-1.53a25.84,25.84,0,0,0,.66-3.24c.07-.59.13-1.14.18-1.67s.07-1.12.09-1.68c0-1.16,0-2.3,0-3.41,0-.59-.07-1.16-.12-1.7s-.13-1.2-.21-1.66l-.19-1.16a1.43,1.43,0,0,1,.81-1.52,1.41,1.41,0,0,1,1.67.36l.76.87c.31.35.56.7.79,1l.5.7.21.31h0l.34.53.31.52c.19.31.36.62.53.93h0l.06.1.33.64,0,0,.31.62h0c.22.47.44.95.63,1.42l.12.3a1.67,1.67,0,0,1,.08.2l.1.26.1.28.08.2c0,.17.11.33.16.49h0l0,.1h0v.05a.84.84,0,0,1,0,.12c.09.29.19.58.27.9l.16.57.09.4s0,.06,0,.09a.3.3,0,0,1,0,.1,1.6,1.6,0,0,1,0,.21l.09.38s0,.12.05.25v.06l.06.31a.59.59,0,0,0,0,.13v0a4.12,4.12,0,0,1,.08.45l.08.56c0,.23,0,.46.08.69,0,0,0,.11,0,.15s0,.37,0,.55v.14l0,.6v.08c0,.23,0,.46,0,.68v.75c0,.21,0,.41,0,.61h0l0,.61h0c0,.19,0,.38-.05.57a1.23,1.23,0,0,1,0,.19c0,.13,0,.25,0,.37l0,.25,0,.32c0,.09,0,.17,0,.26l0,.3,0,.28c0,.09,0,.18-.05.28l-.06.29a2,2,0,0,1,0,.26c0,.09,0,.21-.06.31s0,.16-.05.23-.05.22-.08.34-.09.36-.14.55c-.11.42-.24.86-.39,1.29-.2.62-.44,1.27-.71,1.94h0c-.17.42-.36.86-.56,1.31l0,0,0,.12h0l-.31.61-.19.39-.05.11-.06.11v0h0l-.1.18h0l0,.07-.1.17a4.09,4.09,0,0,1-.22.39l-.17.28-.34.52h0l-.37.52h0c-.18.24-.36.48-.56.73l0,0a19.88,19.88,0,0,1-1.73,1.82,19.66,19.66,0,0,1-1.94,1.58l-.22.16-.05,0-.41.28-.3.27,0,0-.27.17c-.24.15-.5.31-.77.46-.62.36-1.28.7-2.17,1.12s-1.5.65-2.27.94l-.71.26c-.52.18-1,.34-1.55.5-.74.23-1.5.43-2.27.62-.43.11-.86.21-1.3.3-1.58.34-3.23.62-5,.83a14.78,14.78,0,0,1-.83,1.51c-.15.26-.33.52-.52.79a14.29,14.29,0,0,1-3.13,3.27c-.23.16-.46.33-.71.48a11.67,11.67,0,0,1-1.34.74,10.78,10.78,0,0,1-4.57,1,11.61,11.61,0,0,1-2.12-.19l.09.57.12.75a.28.28,0,0,0,0,.09v.08a3,3,0,0,1,0,.43,3.47,3.47,0,0,1,0,.48v0a10.91,10.91,0,0,1-.29,1.71,22.81,22.81,0,0,1-1,3h0c-.41,1-.86,1.94-1.33,2.83a23,23,0,0,1-3.69,5.24l-.3.3-.21.2-.09.08c-.17.16-.35.31-.51.44l-.13.11-.06,0-.15.12-.5.37-.15.11s0,.14,0,.29v.62c0,.21,0,.43,0,.65,0,.48,0,1,.09,1.42v0c0,.16,0,.32,0,.5l0,.2c0,.23,0,.47.07.72v0a19.47,19.47,0,0,1,.09,3.24,9.36,9.36,0,0,1-.31,1.82,6.72,6.72,0,0,1-.82,1.81l0,.06a5.84,5.84,0,0,1-.42.56l0,0v0h0a10.69,10.69,0,0,1-4.56,5.63l-.12.06a5.05,5.05,0,0,1-.71.33h0a4.53,4.53,0,0,1-1.66.35,3.4,3.4,0,0,1-1.37-.29l-.08,0-.28-.08-.31-.07-.13,0a15.19,15.19,0,0,0-2.43-.16h-1l-.35,0c-.69,0-1.28.07-1.65.1a2,2,0,0,1-.34,0h-.18a1.86,1.86,0,0,1-.34,0l-.6-.05H101l-.54,0c-.52,0-1.12,0-1.73,0s-1.15,0-1.58,0h-.19a4.79,4.79,0,0,0-1.46.29,3.23,3.23,0,0,1-1.37.28,4,4,0,0,1-.85-.09l-.11,0-.16,0-.21-.06a6.13,6.13,0,0,1-1.17-.52,9.9,9.9,0,0,1-2.23-1.8h0c-.21-.22-.42-.46-.62-.71h0A9.26,9.26,0,0,1,87,123.53a5.57,5.57,0,0,1-.43-.56,6.38,6.38,0,0,1-.76-1.55c0-.11-.07-.21-.09-.32h0a7.69,7.69,0,0,1-.25-1.25l-.06-.56c0-.28,0-.57,0-.85V118q0-.4,0-.81c0-.4.06-.79.09-1.17v0c0-.24,0-.49.07-.72l0-.2c0-.17,0-.34,0-.49v0c0-.47.07-.94.08-1.42,0-.21,0-.45,0-.66v-.61a2.86,2.86,0,0,0,0-.3l-.15-.11c-.17-.12-.34-.24-.5-.37l-.15-.11-.06-.05-.14-.11c-.15-.13-.33-.28-.5-.45l-.09-.08-.21-.2-.3-.3a22.46,22.46,0,0,1-3.69-5.24l0-.08c-.12-.23-.24-.46-.36-.71-.33-.65-.64-1.33-.93-2v0c-.14-.33-.28-.7-.42-1.08l-.12-.35a.14.14,0,0,1,0-.06c0-.1-.08-.21-.11-.31-.13-.39-.25-.79-.35-1.21a10.93,10.93,0,0,1-.3-1.71v-.16h0a.92.92,0,0,0,0-.16,1.08,1.08,0,0,1,0-.18v-.2c0-.06,0-.12,0-.17V96a.28.28,0,0,1,0-.09l.12-.74.1-.57a12.55,12.55,0,0,1-2.12.18,11,11,0,0,1-4.56-1A14.28,14.28,0,0,1,64.3,87a49.8,49.8,0,0,1-8.56-1.75,34.1,34.1,0,0,1-4.52-1.7c-.89-.42-1.56-.76-2.17-1.12-.27-.15-.52-.31-.77-.46L48,81.81l0,0-.34-.22-.41-.28h0l0,0L47,81.1l-.33-.25h0A20.11,20.11,0,0,1,45,79.53a19.33,19.33,0,0,1-1.7-1.8h0l0,0h0L43,77.36l0,0L42.78,77c-.27-.36-.52-.72-.75-1.07l-.19-.33h0a3.07,3.07,0,0,1-.22-.38l-.09-.15-.16-.28-.11-.23-.33-.67h0l-.22-.45,0,0-.09-.22c-.14-.31-.27-.62-.4-.93s-.19-.47-.28-.71c-.19-.5-.37-1-.53-1.47-.07-.24-.15-.48-.22-.72h0c0-.16-.09-.32-.13-.49s-.11-.43-.16-.64-.11-.48-.15-.72h0c-.09-.42-.17-.84-.23-1.26,0-.24-.08-.47-.11-.71q-.09-.73-.15-1.47V64c0-.31,0-.61,0-.92a25.42,25.42,0,0,1,.19-3.9l.08-.57c0-.17.05-.32.08-.45l0-.17.12-.62.09-.39c0-.07,0-.13,0-.2a1.17,1.17,0,0,0,.05-.2l.09-.4.16-.56c.08-.31.17-.59.26-.86v0a2.76,2.76,0,0,0,.08-.27h0l.14-.39h0q.24-.7.54-1.41c.09-.24.2-.48.31-.71l.46-1,.36-.71c.05-.07.08-.15.13-.23.36-.68.77-1.36,1.25-2.09.23-.36.48-.71.7-1s.49-.67.8-1l.75-.87Zm99,42.25-1.23,1.22h-2.49c.14-.24.27-.48.38-.7,1.15-.16,2.26-.33,3.33-.54ZM119.66,116v0c0-.24,0-.47-.07-.7h0l0-.2c0-.16,0-.32,0-.47v0c0-.46-.06-.92-.07-1.39,0-.22,0-.44,0-.62v-.45l.33-.25h0l.15-.12.09-.07.13-.11c.17-.14.36-.3.55-.48l.08-.08.23-.21h0l.31-.31a23.73,23.73,0,0,0,3.83-5.43c.48-.92.94-1.89,1.36-2.9,0,0,0,0,0,0a23.18,23.18,0,0,0,1.06-3.14,11.67,11.67,0,0,0,.32-1.86v0c0-.14,0-.33,0-.55a2.92,2.92,0,0,0,0-.51v-.07c0-.05,0-.1,0-.14l0-.19a9.93,9.93,0,0,0,1.09,0,11.72,11.72,0,0,0,4.94-1.07,10.15,10.15,0,0,0,1-.51v13.77l-11.47,11.48v3.61h-4.62a7,7,0,0,0,.65-1.58,9.53,9.53,0,0,0,.33-2A20.19,20.19,0,0,0,119.66,116ZM104.6,153.56a.94.94,0,1,1-.93.94A.94.94,0,0,1,104.6,153.56Zm-2.88-2.21a.94.94,0,1,1-.94-.94h0a.94.94,0,0,1,.94.94ZM89.16,135.11h3.61v3.11H89.45L78.69,127.46h2.82Zm-6.65-7.65h5.73A11.34,11.34,0,0,0,91.18,130a7.74,7.74,0,0,0,1.28.58H85.63Zm6.94,6.94-3.11-3.11h6.43v3.11ZM82,119.81v-3.66a1.66,1.66,0,1,0-.71,0v2.94H78.18V104.51h.75c.09.16.17.33.25.48A23.59,23.59,0,0,0,83,110.43h0l.31.31h0l.23.21.08.07a7.26,7.26,0,0,0,.55.49l.13.11.09.07.16.12h0l.33.25v.45c0,.16,0,.32,0,.49a1.64,1.64,0,0,0-1,2.12,1.69,1.69,0,0,0,.73.85,21.18,21.18,0,0,0-.09,3.38,10.25,10.25,0,0,0,.34,2c.06.22.13.43.2.64v.94H78l-3.62-3.61v-15l3.15-3q.15.39.3.75v0c.24.58.5,1.15.76,1.7H77.47v16Zm-.36-4.32a.94.94,0,1,1,.94-.94h0a.94.94,0,0,1-.94.94Zm3.2-1.64c0,.23,0,.47,0,.68v0c0,.14,0,.31,0,.46v.12a1,1,0,0,1,.09-1.3ZM59.35,89,59,88.59h0l-.1-.1H51.2l-6.9-6.93h1.85l.31.23.23.15.07,0,.41.28.34.23.06,0,.23.15h0l.79.48c.64.36,1.32.72,2.24,1.15h0a37.76,37.76,0,0,0,4.62,1.74,50.6,50.6,0,0,0,8.25,1.72,14.92,14.92,0,0,0,6.74,6.77,11.84,11.84,0,0,0,4.93,1.08c.36,0,.73,0,1.1,0l0,.18a.77.77,0,0,0,0,.15v.13a.28.28,0,0,1,0,.09H66.5l-6.45-6.45h0ZM44.82,43.12V44a2.4,2.4,0,0,0-.55.46l-.75.87a13.4,13.4,0,0,0-.84,1.08c-.23.3-.49.66-.73,1-.49.75-.91,1.45-1.29,2.15l-.33.64h-.75A73.53,73.53,0,0,1,44.82,43.12ZM39.12,51H40q-.24.49-.45,1h-1l.62-1Zm-1,1.7h1.15c-.19.47-.36.94-.52,1.41H37.25c.28-.48.55-.95.83-1.41Zm-1.22,2.12h1.62c-.06.2-.13.41-.19.64l-.15.57c0,.15-.07.29-.1.43s0,.12,0,.19,0,.12,0,.18h0l-.09.41s-.12.65-.12.65a.89.89,0,0,1,0,.14h0c0,.14-.06.31-.08.5l-.08.57h0a25.57,25.57,0,0,0-.17,4.79l-1.77,1.66H32a74.29,74.29,0,0,1,4.86-10.76Zm.66,10.76h-.88l.79-.75Zm-5.77.71h5.87c.06.43.14.85.22,1.27H31.33l.42-1.27Zm-.65,2H38l.21.86c0,.09,0,.19.08.28H30.76c.1-.38.22-.76.34-1.14Zm-.56,1.85h8c.16.48.32,1,.51,1.48H30.14c.13-.5.26-1,.4-1.48ZM30,72.28h9.32c.12.31.25.61.39.93H29.72c.08-.32.15-.63.23-.93Zm-.4,1.63H40l.51,1c0,.07.08.17.13.26l0,0H29.26C29.35,74.8,29.45,74.35,29.55,73.91Zm-.44,2H41l.07.12c.19.31.4.64.62,1H28.91c.06-.35.13-.71.2-1.07Zm-.33,1.79H42.24l.37.47,0,0a20.43,20.43,0,0,0,1.81,1.91l.8.7H43.59L41.72,79H28.57c.06-.42.13-.83.21-1.25Zm-.87,19.12H43.26l10.93,10.77a1.65,1.65,0,0,0,3.22.7H68.93v-5.28c-.24.1-.48.21-.71.33v4.25H57.41a1.64,1.64,0,0,0-2.89-.68l-11-10.8H27.85c-.13-1.8-.19-3.62-.19-5.45s.06-3.56.19-5.31H39.44l15.18,15.19.5-.5L39.73,84.68H27.9c.08-1.05.18-2.09.31-3.12H39.43L50,92.1h0l8.48,8.48.51-.5L39.84,81h0l-.1-.11H28.3c.05-.38.11-.77.15-1.15h13l9.48,9.51h7.66l.29.28,7.35,7.37H76.43v.22a11.67,11.67,0,0,0,.32,1.86c.15.58.31,1.13.5,1.65L73.65,104v15.6l4,4h8.16v-.26l0,.07a4.62,4.62,0,0,0,.37.5,9.76,9.76,0,0,0,1.43,2.8H78l-7.44-7.44V102.5l-.72.22v8.73H55L51.55,108a1.65,1.65,0,1,0-1.34.69h0a1.58,1.58,0,0,0,.82-.22l3.71,3.72H69.83v7.44l7.86,7.86h0l11.47,11.47h4.33v-8.13a4.26,4.26,0,0,0,.61,0,4.08,4.08,0,0,0,1.72-.35,3.1,3.1,0,0,1,.79-.17v8.11L93,142.05H89.45L62.79,115.38l-.11-.1H55l-15.2-15.2-.1-.1H28.23c-.13-1-.24-2.07-.32-3.12Zm27,11.12a.94.94,0,1,1,.94.94A.95.95,0,0,1,54.86,108Zm-3.71-1a1,1,0,0,1-.94,1,.94.94,0,0,1,0-1.88h0a.94.94,0,0,1,.94.93Zm-22.83-6.34H39.44l15.19,15.19.11.11h7.65l26.66,26.68.11.1h4.11l4-4v-8.47c.38,0,.83,0,1.4,0s1.09,0,1.68,0h0v19.47a1.65,1.65,0,1,0,.71,0V130.3l.48,0a2.4,2.4,0,0,0,.46,0h.19a2.31,2.31,0,0,0,.46,0c.36,0,.9-.07,1.53-.09v22.64a1.64,1.64,0,1,0,.71,0V130.22h.68a16,16,0,0,1,2.29.14l.14,0v23.35l-3.62,3.62h-3.52L62.79,119.2l-.11-.1H55l-15.2-15.2-.1-.1H28.8c-.18-1-.34-2.07-.48-3.11Zm.62,3.82h10.5l15.2,15.2.1.1h7.65L100.54,158l.1.1h4.12l4-4V130.6a4,4,0,0,0,1.46.25,5,5,0,0,0,1.66-.29v27l-3.63,3.61h-7.35L62.79,123l-.11-.1H55l-15.2-15.2-.1-.1H29.59q-.36-1.55-.66-3.12Zm.83,3.83h9.67l15.2,15.19.1.11h7.65l3.12,3.11H50.91l-7.65,7.66H41.81a74.07,74.07,0,0,1-12-26.06ZM42.34,135.1h1.22l7.65-7.65h15l3.12,3.11H50.92l-6.81,6.81c-.61-.73-1.21-1.49-1.78-2.26Zm16,15.87a74.44,74.44,0,0,1-8.32-7l1.17-1.17h3.54l3.62,3.62ZM66,155.86c-1.06-.59-2.09-1.2-3.11-1.84v-7.64L66,143.26Zm3.82,2c-1-.51-2.09-1-3.11-1.59V142.76h3.11Zm11.48,4.41c-2.36-.69-4.68-1.49-6.94-2.4V147.09L81.3,154Zm3.82,1c-1-.24-2.08-.51-3.11-.8v-8.72l-8.36-8.35v14.18c-1.05-.43-2.08-.89-3.11-1.37V142.05H66.21l-4,4v7.5q-1.59-1-3.12-2.1v-5.4l-4-4H50.91l-1.38,1.38c-.48-.47-.94-.94-1.4-1.42l3.07-3.07H70L85.12,154ZM89,164q-1.58-.28-3.12-.63v-9.68l-15.4-15.4-.1-.11H50.91l-3.26,3.27c-.46-.49-.9-1-1.35-1.48l4.9-4.9H70L89,154Zm26.77-.06a75,75,0,0,1-26.06.18V153.73L70.43,134.5l-.1-.1H50.91l-5.08,5.07q-.64-.75-1.29-1.53l6.66-6.65H70l30.5,30.49.1.11h8l4-4V130.28a4,4,0,0,0,.41-.21l0,0,.1-.05a11.58,11.58,0,0,0,4.92-6l.25-.32h5.76v-4l11.47-11.47V93.62c.17-.12.34-.23.51-.36a14.76,14.76,0,0,0,2.61-2.51v17.08L127.2,119.31V127l-11.48,11.48Zm3.82-.81c-1,.25-2.07.47-3.11.68V138.73l11.47-11.48V119.6l11.48-11.47V89.81c.14-.2.28-.4.4-.6H143L145.19,87c1.27-.27,2.48-.59,3.66-.94l.15,0-6.5,6.5v15.3L131,119.31V127l-11.48,11.48Zm3.83-1c-1,.31-2.07.59-3.12.85V138.73l11.48-11.48V119.6l11.47-11.47V92.83l7.3-7.29c1-.36,2-.77,3-1.21h0a24.73,24.73,0,0,0,2.22-1.14c.29-.16.55-.32.8-.48l.26-.15.05,0,.35-.23.41-.27.07,0,.22-.16a19.86,19.86,0,0,0,2-1.63,18.81,18.81,0,0,0,1.74-1.83V81L146.31,92.5v23l-22.94,23Zm23.66-12h0l20.83-24.3A74.85,74.85,0,0,1,147,150.2ZM170,121.61v-7.27l3.47-1.86a73.9,73.9,0,0,1-3.47,9.13Zm5.61-18.14V96.86h.84Q176.16,100.21,175.59,103.47Zm1-9.29h-3.5v11.51l-3.64,2,.34.62,4-2.18V94.89h2.76c0,.42,0,.84-.08,1.26h-1.61V107l-5.39,2.4.28.65,4.92-2.19-.27,1.11-4.95,2.43.31.64,4.39-2.17c-.14.55-.29,1.09-.44,1.62l-4.46,2.39v9.22l0,0-22.83,26.65-.09.1v.8c-1,.75-2,1.48-3.11,2.17v-6.66h-.71v7.13c-.36.23-.72.47-1.09.69v-7.82h-.71v8.25l-1.32.79v-9h-.71v9.44l-1.1.61V146.23h-.71v10.43l-1.3.67v-11.1h-.72v11.45c-1,.5-2.06,1-3.11,1.44V142.76h3.47v-.71H131v17.37c-1,.43-2.07.84-3.12,1.22V138.73l6.94-6.86v6.71h.71v-8.41l-8.35,8.26V160.9c-1,.37-2.07.71-3.12,1V138.72L147,115.78V92.86l15.3-11.47v-4c.19-.26.37-.51.53-.77V84L150.15,92.5v23L138.67,127v11.62h.71V127.25l11.48-11.47V92.88l12.71-8.51V75.48l.15-.26h0c.05-.09.09-.18.13-.26l.35-.73V85.58L154,92.5v23L142.49,127v12h4.36L158.5,123.4V90.28l3.12-2.1v35l-13,16.83h-5.79v.71H149l13.27-17.19.07-.09V87.7L164.92,86V72.62c.19-.46.37-.91.53-1.36v51.9l-15.12,18.89h-7.48v.71h7.83l15.47-19.35v-18.9H170V93h6.65q0,.57,0,1.14Zm-18.8-3.41v32.39l-11.3,15.06h-3.29v-11l11.47-11.47V92.88Zm18.86,1.55h-7.39V103.8h-3.12V69a27.54,27.54,0,0,0,.8-4.86,25.93,25.93,0,0,0-.15-5.06l-.08-.56c0-.19-.06-.36-.09-.5v0s0-.09,0-.14-.12-.62-.12-.63-.06-.28-.1-.42,0-.12,0-.2,0-.12,0-.18-.06-.28-.1-.43l0-.15V52.5c1.12,1.87,2.16,3.8,3.12,5.77V89.22h7.39c0,.49,0,1,0,1.48S176.67,91.79,176.66,92.32Z"/></g><g id="Capa_37" data-name="Capa 37"><path class="cls-4" d="M75.48,89.76A9.32,9.32,0,0,1,74.42,88,5.1,5.1,0,0,1,74,86.1c-.66,0-1.33,0-2,0a3.8,3.8,0,0,0-.08.82,3.87,3.87,0,0,0,.15,1,5,5,0,0,0,.4,1,8.91,8.91,0,0,0,.57.93,11.7,11.7,0,0,0,1.48,1.66,14.93,14.93,0,0,0,1.45,1.18,11.48,11.48,0,0,0,2-.3c-.4-.34-.79-.71-1.16-1.09A15.92,15.92,0,0,1,75.48,89.76Z"/><path class="cls-4" d="M72.6,90.18a7.34,7.34,0,0,1-.71-1,5.11,5.11,0,0,1-.54-1.07,4.83,4.83,0,0,1-.3-1.19,4.51,4.51,0,0,1,0-.9l-1.24,0-1,0a4.22,4.22,0,0,0-.1.62,4,4,0,0,0,.06,1,5.42,5.42,0,0,0,.71,1.85,9.83,9.83,0,0,0,1.23,1.65c.22.23.44.46.67.67l.35.17a8.87,8.87,0,0,0,4,.8c-.47-.3-.93-.61-1.38-1A11.4,11.4,0,0,1,72.6,90.18Z"/><path class="cls-4" d="M69.08,89.66a6.36,6.36,0,0,1-.93-2A4.71,4.71,0,0,1,68,86.57a4.44,4.44,0,0,1,0-.63l-2-.17a13.47,13.47,0,0,0,4.39,5.4A10,10,0,0,1,69.08,89.66Z"/><path class="cls-4" d="M80,92.05l.53,1,.25.47.12.23L81,94a.2.2,0,0,1,0,.08l.1-.14a2.31,2.31,0,0,0,.21-.45l-.08,0,.09,0,0-.06q.09-.28.15-.57a6.67,6.67,0,0,0,.14-1.18c0-.4,0-.81.06-1.23a2.86,2.86,0,0,1,.11-.64c0-.11.08-.23.13-.34a1.25,1.25,0,0,1,.28-.37.75.75,0,0,1,.28-.18l.18,0a.6.6,0,0,1,.19,0,1,1,0,0,1,.5.23,2.37,2.37,0,0,1,.27.28l.1.14.1.15.15.25.15.24c.11.16.21.32.33.48.22.31.46.63.71.93A11.39,11.39,0,0,0,87,93.17a21.79,21.79,0,0,0,1.92,1.39,14.28,14.28,0,0,0,2.06,1.15,8.18,8.18,0,0,0,2.22.69,3,3,0,0,0,1.12-.05,1.74,1.74,0,0,0,.49-.2c0-.18,0-.38,0-.58s0-.4-.06-.61c0-.4-.11-.81-.18-1.21a19.43,19.43,0,0,0-.6-2.39c-.09-.29-.19-.57-.3-.85,0,.1,0,.19,0,.29a6.27,6.27,0,0,1,0,1.06,3.33,3.33,0,0,1-.11.53,1.67,1.67,0,0,1-.27.51.82.82,0,0,1-.25.2l-.15.05-.16,0a1.42,1.42,0,0,1-.57-.15l-.23-.14-.22-.16-.42-.3-.42-.28-.44-.27c-.58-.36-1.17-.71-1.77-1.06s-1.18-.7-1.76-1.07a13.47,13.47,0,0,1-1.68-1.24,5.19,5.19,0,0,1-.71-.77l-.16-.22a2.53,2.53,0,0,1-.13-.22,4,4,0,0,1-.26-.45,7.31,7.31,0,0,1-.43-1,3,3,0,0,1-.12-.52,1.5,1.5,0,0,1,0-.22l-.27.06-.57.11-1.13.19c-.76.12-1.52.21-2.29.29l-.76.07a16.17,16.17,0,0,0,.24,1.7A20.49,20.49,0,0,0,79,89.89,8.84,8.84,0,0,0,79.47,91C79.64,91.36,79.83,91.71,80,92.05Z"/><path class="cls-4" d="M78.66,90c-.17-.77-.33-1.56-.51-2.34-.14-.58-.27-1.15-.42-1.72-1,.08-2,.13-3,.15A4.41,4.41,0,0,0,75,87.77a8.88,8.88,0,0,0,.86,1.75A15.15,15.15,0,0,0,77,91.12a16.28,16.28,0,0,0,1.12,1.24c.3-.08.61-.17.91-.27-.05-.31-.1-.6-.14-.91S78.74,90.38,78.66,90Z"/><path class="cls-4" d="M58.84,82.71,58.52,82c-.11-.25-.23-.49-.34-.74a13.13,13.13,0,0,1-.59-1.51,5.37,5.37,0,0,1-.27-1.6,2.32,2.32,0,0,1,.07-.52,12.78,12.78,0,0,1-2.12-.49l-.53-.19-.52-.23a3,3,0,0,1-.48-.31,2.79,2.79,0,0,1-.44-.4l-.1-.11,0-.07,0-.05a.27.27,0,0,0-.16-.1,1.83,1.83,0,0,0-.52,0c-.36,0-.72.08-1.08.13-.73.1-1.47.2-2.21.25a10.4,10.4,0,0,1-2.23-.06,6.81,6.81,0,0,1-2.16-.64,6.25,6.25,0,0,1-1.51-1c.07.13.15.26.23.38.21.31.41.62.64.93s.46.59.7.87A17,17,0,0,0,46.42,78a18.23,18.23,0,0,0,1.79,1.35l.23.16.24.15.48.3c.32.18.64.37,1,.54a22.1,22.1,0,0,0,2,1,32,32,0,0,0,4.27,1.44c.72.2,1.46.37,2.19.53l.6.12a.41.41,0,0,0,0-.09C59.05,83.21,58.94,83,58.84,82.71Z"/><path class="cls-4" d="M63.77,83.5c-.07-.25-.14-.51-.22-.76s-.17-.5-.26-.74c-.19-.5-.36-1-.5-1.5a6.94,6.94,0,0,1-.3-1.56v-.09c-.42-.3-.85-.57-1.29-.83a10.69,10.69,0,0,0-1.44-.71,4,4,0,0,0-.76-.25,2.25,2.25,0,0,0-.78-.07L58,77l-.09,0-.08,0a.91.91,0,0,0-.16.11l-.06.07,0,.08a1.5,1.5,0,0,0-.17.75,5.47,5.47,0,0,0,.31,1.55,16,16,0,0,0,.62,1.48,7.8,7.8,0,0,0,.38.7c.14.23.29.45.44.67s.32.43.47.65l.22.33.11.17v0l.87.15c1,.17,2.11.31,3.18.43h0A7.58,7.58,0,0,1,63.77,83.5Z"/><path class="cls-4" d="M68.42,84.61a.06.06,0,0,1,0,0,4.17,4.17,0,0,1-.08-.7c0-.24,0-.48,0-.71s-.07-.47-.11-.69c-.08-.47-.14-.93-.19-1.4a10.85,10.85,0,0,1-.09-1.4v-.12c-.44-.21-.89-.4-1.34-.58a13.7,13.7,0,0,0-1.48-.52,6.7,6.7,0,0,0-1.53-.31,1.6,1.6,0,0,0-.38,0,.89.89,0,0,0-.36.11.47.47,0,0,0-.18.29,1.94,1.94,0,0,0,0,.24h0v.13a6.05,6.05,0,0,0,.32,1.52c.16.49.34,1,.53,1.47a5.78,5.78,0,0,0,.31.72q.18.34.39.69c.13.22.27.45.39.68s.11.21.15.32l.62.07c.75.06,1.51.12,2.26.16C67.87,84.59,68.14,84.59,68.42,84.61Z"/><path class="cls-4" d="M87.62,110.08a1.56,1.56,0,0,1,.16.2l.13.21.06.16.06-.16c.15-.39.3-.78.42-1.18s.22-.8.3-1.21a4.82,4.82,0,0,0,.07-1.2,1.71,1.71,0,0,0-.36-1l-.09-.1-.11-.11-.23-.22c-.16-.14-.31-.29-.48-.43l-1-.86-.11,0a.83.83,0,0,0,0-.15l-.81-.72c-.33-.28-.65-.57-1-.86s-.64-.58-1-.88-.61-.6-.9-.92a9,9,0,0,1-.79-1c0-.09-.11-.18-.16-.28l-.08-.16L81.69,99a2.57,2.57,0,0,1-.2-.65c0-.24,0-.44,0-.66l-.06-.63a8.72,8.72,0,0,0-.21-1.26c0-.21-.1-.41-.15-.61s0-.14-.07-.21h-.13l-.09,0-.07,0a1.36,1.36,0,0,1-.41-.26,3,3,0,0,1-.68-.89c0,.08,0,.16-.08.24-.06.24-.13.47-.19.71s-.12.48-.17.72S79,96,79,96.18a4.16,4.16,0,0,0,0,.71,7,7,0,0,0,.26,1.44,16.75,16.75,0,0,0,1,2.74,24.75,24.75,0,0,0,1.41,2.58,24.18,24.18,0,0,0,3.64,4.54c.35.33.72.63,1.09.92.19.14.37.28.58.42A3.16,3.16,0,0,1,87.62,110.08Z"/><path class="cls-4" d="M80.94,94.14s0,0,.09,0l0,0h0A.15.15,0,0,0,80.94,94.14Z"/><path class="cls-4" d="M106.79,103.12a7.29,7.29,0,0,0,3,4.56l-.26-1-.11-.45-.09-.46c0-.15,0-.31-.08-.46s0-.31,0-.47a14.72,14.72,0,0,1,.22-3.69c.1-.61.22-1.21.33-1.8l0-.12v-.1a.67.67,0,0,0,0-.2,1.37,1.37,0,0,0-.15-.38,2.53,2.53,0,0,0-.62-.6l-.34-.21a3.26,3.26,0,0,1-.86,2A4.38,4.38,0,0,0,106.79,103.12Z"/><path class="cls-4" d="M106.11,100c-.89,2.23-2,5-1,7.33a5.43,5.43,0,0,0,4.1,3.43h.17l.23,0h.2a.5.5,0,0,0,.27,0,.28.28,0,0,0,.14-.18,2,2,0,0,0,.06-.35,4.8,4.8,0,0,0-.08-.85c0-.29-.11-.59-.18-.88s-.11-.42-.16-.62a7.47,7.47,0,0,1-3.19-4.71,4.44,4.44,0,0,1,1.09-3.46,3,3,0,0,0,.83-2,8,8,0,0,0-1.16-.5l-.52-.16A6.77,6.77,0,0,1,106.11,100Z"/><path class="cls-4" d="M113.25,124.37l-.39.1a2.83,2.83,0,0,1-.4.08,11.45,11.45,0,0,1-1.54.14,25.56,25.56,0,0,1-3-.09c-1-.08-2-.2-3-.35s-1.84-.31-2.75-.52c-.92.21-1.83.37-2.76.52s-2,.27-3,.35a25.33,25.33,0,0,1-3,.09,11.59,11.59,0,0,1-1.55-.14l-.39-.08a2.92,2.92,0,0,1-.4-.1l-.74-.25a7,7,0,0,1-1.1-.54,8.79,8.79,0,0,0,3.4,3.87,2.3,2.3,0,0,0,2,.36c1.89-.84,6.61-.46,7.55-.37.94-.09,5.65-.47,7.54.37a2.32,2.32,0,0,0,2-.36,8.92,8.92,0,0,0,3.4-3.87,7.47,7.47,0,0,1-1.1.54Z"/><path class="cls-4" d="M91.13,99.69s0-.09,0-.14a2.74,2.74,0,0,1,0-.28l.06-.27.11-.27,0-.12a.36.36,0,0,0,0-.11s0-.07,0-.1,0-.07,0-.1a.74.74,0,0,0-.11-.39,2.09,2.09,0,0,0-.73-.62,5.53,5.53,0,0,0-.93-.42c-.33-.12-.67-.22-1-.31h0l-.31-.07a7.54,7.54,0,0,1-.92-.29L86.94,96a7.7,7.7,0,0,1-1.72.41,5.9,5.9,0,0,1-1,0,3.43,3.43,0,0,1-1-.28,2.26,2.26,0,0,1-.86-.7,2.5,2.5,0,0,1-.42-1,4.2,4.2,0,0,1-.06-.61c0,.11,0,.22,0,.33a2,2,0,0,1-.09.35.92.92,0,0,1-.17.29l.06.33c0,.22.07.44.1.66s.06.64.07,1a2,2,0,0,0,.41.36,6.74,6.74,0,0,0,1.12.61c.38.19.78.35,1.16.57l.28.17a1.71,1.71,0,0,1,.25.22,3.52,3.52,0,0,1,.35.56,18.37,18.37,0,0,1,.91,2.41c.24.77.46,1.55.66,2.33l.44.32c-.13-.94-.25-1.89-.31-2.84,0-.27,0-.53,0-.8s0-.27,0-.4a1.6,1.6,0,0,1,0-.21.54.54,0,0,1,.05-.11l0-.06.06,0a.37.37,0,0,1,.25,0,.73.73,0,0,1,.21.06A2,2,0,0,1,88,100a3.9,3.9,0,0,1,.63.51,6,6,0,0,1,.55.58,3.76,3.76,0,0,1,.44.68,1.9,1.9,0,0,1,.14.4,1.49,1.49,0,0,1,0,.21v.2a7,7,0,0,1-.08.8c-.07.52-.17,1-.28,1.56-.07.33-.15.67-.23,1l.06.17a2.47,2.47,0,0,1,.17.7c0,.12,0,.24,0,.36a1.56,1.56,0,0,1,0,.31,2.66,2.66,0,0,0,.52.64,1.35,1.35,0,0,0,.81.35,1,1,0,0,0,.43-.09,1.08,1.08,0,0,0,.35-.28,2,2,0,0,0,.41-.89,3.94,3.94,0,0,0,.06-1,6.3,6.3,0,0,0-.14-1c-.12-.7-.27-1.4-.41-2.1a17.1,17.1,0,0,1-.37-2.12c0-.19,0-.37,0-.55a3.41,3.41,0,0,1,0-.55Z"/><path class="cls-4" d="M89.62,102.58v-.18a1.15,1.15,0,0,0,0-.19,2,2,0,0,0-.12-.34,3.54,3.54,0,0,0-.42-.64,4,4,0,0,0-.52-.57,5.58,5.58,0,0,0-.6-.49,1.74,1.74,0,0,0-.33-.18.45.45,0,0,0-.3,0s-.09.16-.1.28,0,.26,0,.39,0,.52,0,.77c0,1,.14,2,.26,2.94l.41.29.53.39.26.21.12.11.14.14a.88.88,0,0,1,.12.15.91.91,0,0,1,.11.16c.16-.81.31-1.61.42-2.42A6.83,6.83,0,0,0,89.62,102.58Z"/><path class="cls-4" d="M81.78,98.34a2.77,2.77,0,0,0,.4,1.15,9.25,9.25,0,0,0,1.62,2c.31.31.63.59,1,.87s.67.54,1,.79l.55.4c-.14-.6-.29-1.21-.46-1.81a18.25,18.25,0,0,0-.8-2.4,2.62,2.62,0,0,0-.3-.51l-.08-.09-.11-.09a2.2,2.2,0,0,0-.25-.17c-.35-.22-.74-.4-1.13-.6a7.84,7.84,0,0,1-1.12-.66l-.31-.27a.57.57,0,0,0,0,.13c0,.22,0,.44,0,.65S81.77,98.15,81.78,98.34Z"/><path class="cls-4" d="M90.79,96a18,18,0,0,1-2.11-1.16,22.39,22.39,0,0,1-2-1.39c-.62-.51-1.23-1-1.84-1.55-.31-.27-.61-.54-.9-.83a6,6,0,0,1-.42-.45l-.2-.24-.19-.24a2.06,2.06,0,0,0-.28-.31l0,0a2,2,0,0,0-.11.21c-.07.15-.13.33-.2.5-.14.36-.28.74-.39,1.12,0,.19-.1.39-.14.58a.83.83,0,0,1,.08-.12,1.42,1.42,0,0,1,.41-.4l.16-.07.17,0H83l.16,0a1.54,1.54,0,0,1,.53.26,4,4,0,0,1,.7.72c.39.49.77,1,1.17,1.44.2.24.41.47.62.68a3.56,3.56,0,0,0,.68.55,5.41,5.41,0,0,0,.79.42,8.64,8.64,0,0,0,.85.31l.32.08.37.09c.36.08.73.14,1.11.19.61.07,1.22.12,1.84.13A9.68,9.68,0,0,1,90.79,96Z"/><path class="cls-4" d="M108.59,79.51q-1.38-1.07-2.82-2a26.74,26.74,0,0,0-3-1.78c-.26-.13-.53-.24-.79-.36l-.41-.15-.4-.16c-.55-.2-1.11-.37-1.67-.52s-1.12-.3-1.69-.41c-.29-.06-.57-.12-.86-.16l-.43-.06-.21,0s-.07,0-.11,0l-.93.64.12,0,.42.07c.27.06.54.14.81.21q.81.24,1.59.54a26.3,26.3,0,0,1,3.08,1.34,9.34,9.34,0,0,1,1.43.91,2.81,2.81,0,0,1,.31.29,1,1,0,0,1,.22.4.37.37,0,0,1,0,.25,1.67,1.67,0,0,1-.08.2c-.06.12-.12.25-.19.37a17,17,0,0,0-1.25,3.08,5.76,5.76,0,0,0-.15.81,2.44,2.44,0,0,0,0,.81,1.44,1.44,0,0,0,.34.7,1.46,1.46,0,0,0,.66.43l.19,0,.2,0,.41.05.83.1c.56.08,1.11.18,1.66.29a26.37,26.37,0,0,1,3.25.86,13.18,13.18,0,0,1,1.56.65,3.64,3.64,0,0,1,.71.47,1.22,1.22,0,0,1,.3.34.37.37,0,0,1,0,.11l.18-.29c.13-.49-.23-.71-.57-.93s-.54-.33-.53-.62a8.72,8.72,0,0,1,2.35-3c.27-.21.46-.29.58-.27a1.73,1.73,0,0,1,1.14.57.66.66,0,0,1,.08.36l.43-.39-.14-.16L115,83l-.22-.21-.12-.11-.12-.1a9.35,9.35,0,0,0-2.11-1.35l-.29-.13-.29-.11-.3-.11-.3-.1-.31-.09a2.8,2.8,0,0,0-.31-.09l-.62-.14-.3,0-.31,0-.31,0-.17,0a.51.51,0,0,1-.15-.07.55.55,0,0,1-.24-.62S108.58,79.52,108.59,79.51Z"/><path class="cls-4" d="M73,83.73c.1.32.21.64.29,1h1.07c1.33,0,2.66,0,4-.08l-.5-.82a14.83,14.83,0,0,0-1.11-1.72c-.21-.26-.43-.52-.65-.77s-.45-.51-.69-.75a9.69,9.69,0,0,0-.73-.7,5.91,5.91,0,0,0-.8-.62l-.22-.13-.11,0-.06,0h-.06l-.11,0-.12,0A.45.45,0,0,0,73,79a.51.51,0,0,0-.3.31,1.51,1.51,0,0,0-.13.46,5.57,5.57,0,0,0,0,1c0,.34,0,.67.09,1A11.27,11.27,0,0,0,73,83.73Z"/><path class="cls-4" d="M113.73,82.91c-.06,0-.19,0-.5.25a8.57,8.57,0,0,0-2.3,2.87c0,.22.21.36.46.52s.63.4.65.79c.11-.18.23-.37.35-.54a15.4,15.4,0,0,1,1.52-2q.44-.5.93-1a.56.56,0,0,0,0-.42A1.63,1.63,0,0,0,113.73,82.91Z"/><path class="cls-5" d="M108.86,80.08a.35.35,0,0,0,.13,0l.16,0,.31,0,.31,0a1.45,1.45,0,0,1,.3.05,11.6,11.6,0,0,1,2.47.69,9.38,9.38,0,0,1,2.26,1.29l.13.1.12.1.25.22.23.22.17.18h0l.24-.21.2-.15-.33-.37a9.49,9.49,0,0,0-2-1.55,11,11,0,0,0-2.3-1l-.31-.09-.31-.08-.62-.14c-.21-.06-.42-.07-.62-.11l-.31,0-.15,0-.16,0a.44.44,0,0,0-.44.43.44.44,0,0,0,.21.38Z"/><path class="cls-4" d="M105.09,87.94a3,3,0,0,1-.25.76,4.5,4.5,0,0,1-1,1.26,8.27,8.27,0,0,1-1.23,1,13.93,13.93,0,0,1-1.34.8c-.47.24-.94.46-1.42.65a11.67,11.67,0,0,0-1.4.62l-.32.19c-.11.06-.21.14-.32.21l-.16.1-.15.11-.31.22-.31.23-.3.24c-.19.16-.39.32-.58.5l-.74.7,0,.2a7,7,0,0,1,2.1-.95,13.8,13.8,0,0,1,2.38-.42c.41,0,.81-.07,1.21-.08s.75,0,1.13,0,.75,0,1.12,0,.81,0,1.21.08a13.75,13.75,0,0,1,2.39.42,7.05,7.05,0,0,1,2.09.95l0-.21c0-.21.08-.41.13-.62.08-.41.18-.82.28-1.23.21-.8.47-1.6.75-2.39a24.42,24.42,0,0,1,1-2.3l.29-.55.14-.26a.09.09,0,0,1,0-.07V88a.47.47,0,0,0-.06-.15,1.16,1.16,0,0,0-.25-.29,4.45,4.45,0,0,0-.68-.45,12.7,12.7,0,0,0-1.53-.64,27.79,27.79,0,0,0-3.22-.86c-.55-.11-1.1-.21-1.65-.29l-.83-.1-.42-.06-.21,0a.83.83,0,0,1-.21-.06,1.63,1.63,0,0,1-1.11-1.26,2.75,2.75,0,0,1,0-.86,5.79,5.79,0,0,1,.16-.83A16.28,16.28,0,0,1,102.8,79l.18-.38.08-.18a.3.3,0,0,0,0-.16.7.7,0,0,0-.19-.32,1.92,1.92,0,0,0-.29-.28,8.42,8.42,0,0,0-1.39-.89,26.75,26.75,0,0,0-3-1.36c-.52-.2-1-.38-1.58-.54q-.4-.12-.81-.21a2.83,2.83,0,0,0-.4-.08l-.25,0c-.48.35-1,.7-1.43,1.06s-.81.63-1.21,1a12.43,12.43,0,0,0-1.12,1.06q-.12.13-.24.3a.71.71,0,0,0-.15.33.14.14,0,0,0,.08.15l.17.09c.12,0,.24.09.36.12.5.14,1,.23,1.51.33,1,.19,2,.35,3,.53l1.52.29q.77.17,1.5.39a4.33,4.33,0,0,1,.73.31,1,1,0,0,1,.31.28.37.37,0,0,1,0,.23l0,.1,0,.1a3.13,3.13,0,0,1-.35.71c-.13.22-.28.44-.43.65-.3.42-.61.83-.9,1.26-.14.21-.27.43-.39.65l-.09.17,0,.09,0,.09a1.21,1.21,0,0,0,0,.18,1.09,1.09,0,0,0,0,.18.41.41,0,0,0,.14.31l.07.05.09,0a.49.49,0,0,0,.17.06,3.9,3.9,0,0,0,.76.13c.51.06,1,.08,1.55.11l.77,0c.26,0,.51,0,.77.06a7.4,7.4,0,0,1,1.54.26,2.85,2.85,0,0,1,.72.31,1.34,1.34,0,0,1,.53.6.66.66,0,0,1,.06.2.65.65,0,0,1,0,.2,1.33,1.33,0,0,1,0,.2C105.12,87.82,105.09,87.87,105.09,87.94Z"/><path class="cls-4" d="M99.62,72.49l1.76.34.87.18.45.1.22.06.22.07c.57.19,1.13.41,1.68.65,1.1.48,2.17,1,3.22,1.57s2.06,1.1,3.06,1.69a.5.5,0,0,1,0-.12.57.57,0,0,1,.53-.4l.16,0,.16,0,.31,0c.21,0,.42.05.63.1l.63.13a1.77,1.77,0,0,1,.31.08l.31.08.31.08.31.11c.2.07.4.13.6.21l.59.25c.2.09.39.2.58.29a9.51,9.51,0,0,1,2.11,1.5,8.2,8.2,0,0,1,.88,1l.09.13v-.29l0-.31,0,0,0-.07,0-.06a4.41,4.41,0,0,0-.36-.49l-.21-.24-.21-.22c-.07-.08-.16-.14-.23-.22l-.11-.1-.12-.1a8.66,8.66,0,0,0-2.11-1.34,1.51,1.51,0,0,0-.29-.13l-.29-.12-.29-.11-.31-.1-.31-.09-.31-.09-.61-.13-.31-.06-.31,0-.31,0-.17,0-.15-.07a.55.55,0,0,1-.17-.76.54.54,0,0,1,.46-.26l.16,0,.16,0,.32,0c.21,0,.42,0,.63.1l.62.13a2.82,2.82,0,0,1,.31.07l.31.09.31.08.31.1.61.22.59.26.57.29a9.72,9.72,0,0,1,2.09,1.52c.11.1.21.21.31.32,0-.16.09-.3.14-.45l-.18-.22-.2-.23-.22-.22c-.07-.08-.15-.15-.22-.22l-.12-.1-.11-.1a8.66,8.66,0,0,0-2.11-1.34,1.85,1.85,0,0,0-.29-.13l-.3-.12-.29-.11-.3-.1-.31-.09-.31-.08-.62-.14a1.55,1.55,0,0,0-.31-.06l-.31,0-.31,0-.16,0a.33.33,0,0,1-.16-.07.56.56,0,0,1-.17-.76.54.54,0,0,1,.46-.25h.17l.15,0,.31,0a6.37,6.37,0,0,1,.63.1l.62.13.31.07.31.09.31.08.31.11c.2.07.41.13.6.21l.6.26.57.29a10,10,0,0,1,2.1,1.5h0l0-.17c.26-.9.53-1.79.77-2.7l-.33-.27-.52-.37-.54-.35c-.18-.11-.36-.22-.55-.32a13.1,13.1,0,0,0-2.33-1,10.6,10.6,0,0,0-5-.41,19.57,19.57,0,0,0-2.49.59c-.42.12-.85.24-1.29.33a8.25,8.25,0,0,1-1.4.18h-.54l-.18,0-.36,0-.36-.08-.18,0a.75.75,0,0,1-.16,0l-.31-.09-.64-.17c-.41-.12-.84-.24-1.25-.34a3.23,3.23,0,0,0-.54-.11,2.07,2.07,0,0,0-.25,0h-.62a3.45,3.45,0,0,0-.54.11l-.25.06,0,0c-.24.09-.48.19-.71.3-.47.22-.92.46-1.37.71l-.2.12.13,0Z"/><path class="cls-4" d="M120.61,84.5l0-.06,0,0v0l.09-.13a.83.83,0,0,0,.07-.13l0-.07,0-.07a.74.74,0,0,0,0-.14.32.32,0,0,0,0-.14,1.31,1.31,0,0,0,0-.28,2.87,2.87,0,0,0-.45-1.2c-.12-.21-.24-.41-.38-.62l-.21-.32,0-.07-.1,0q-.58.19-1.17.45l-.31.14L118,82l-.08,0-.48.25-.39.23-.12.07-.21.13-.3.21,0,0-.22.16-.25.18h0l-.32.26a14.57,14.57,0,0,0-3,3.35A17.26,17.26,0,0,0,111,89.79h0a1.15,1.15,0,0,1,.06.52l0,.5a6.83,6.83,0,0,0,0,1,2.46,2.46,0,0,0,.1.47,1,1,0,0,0,.2.4.4.4,0,0,0,.33.17,1,1,0,0,0,.42-.12,2.25,2.25,0,0,0,.21-.12l.2-.14.43-.31.43-.29.44-.27c.59-.36,1.19-.7,1.79-1s1.19-.68,1.77-1a13.09,13.09,0,0,0,1.66-1.18,4.9,4.9,0,0,0,.71-.73l.16-.2a1.48,1.48,0,0,0,.13-.21c.1-.14.18-.29.27-.44a6.35,6.35,0,0,0,.44-.91,2.72,2.72,0,0,0,.13-.49,1.81,1.81,0,0,0,0-.23h0l-.07,0h0l-.1,0a.36.36,0,0,1-.2-.2.7.7,0,0,1,0-.25Z"/><path class="cls-4" d="M117.65,81.7a6.82,6.82,0,0,0-.6-.71,9.49,9.49,0,0,0-2-1.55,11.68,11.68,0,0,0-4.78-1.53.44.44,0,0,0-.22.81.31.31,0,0,0,.12,0l.16,0,.31,0,.32,0,.31.05a11.94,11.94,0,0,1,2.47.69A9.22,9.22,0,0,1,116,80.9l.13.09.13.11.24.22.24.22.23.24.19.22C117.33,81.89,117.49,81.8,117.65,81.7Z"/><path class="cls-4" d="M93.3,89.78a17.56,17.56,0,0,0-1.53-2.87,14.48,14.48,0,0,0-3.34-3.6l-.24-.19L87.93,83a5.65,5.65,0,0,0-.51-.34,11.24,11.24,0,0,0-1.07-.6,11.63,11.63,0,0,0-1.9-.77l0,.07-.21.32c-.14.2-.27.41-.39.61a3.28,3.28,0,0,0-.45,1.21,1.31,1.31,0,0,0,0,.28.7.7,0,0,0,0,.14.74.74,0,0,0,0,.14l0,.07,0,.06s.05.09.07.14a.6.6,0,0,0,.09.13h0l0,0,0,0,.06.13a.74.74,0,0,1,0,.25.38.38,0,0,1-.2.21l-.1,0h0l-.07,0h0a.91.91,0,0,0,0,.23,2.85,2.85,0,0,0,.13.48,6,6,0,0,0,.44.92c.08.15.17.29.26.44l.14.21.16.2a6,6,0,0,0,.7.72,14.23,14.23,0,0,0,1.68,1.2c.58.36,1.17.7,1.77,1s1.2.68,1.79,1l.44.28.43.28.43.31.2.15a2.25,2.25,0,0,1,.21.12,1.19,1.19,0,0,0,.42.11.42.42,0,0,0,.33-.16,1.08,1.08,0,0,0,.2-.4,2.73,2.73,0,0,0,.1-.48,6.69,6.69,0,0,0,0-1c0-.17,0-.34,0-.51a1.33,1.33,0,0,1,.06-.52Z"/><path class="cls-4" d="M44.87,75.05a7,7,0,0,0,2.07.64,10.7,10.7,0,0,0,2.19.07c.73,0,1.46-.15,2.19-.25.37-.05.73-.11,1.11-.13a1.94,1.94,0,0,1,.59,0,.55.55,0,0,1,.29.18l.09.1.09.09a4.37,4.37,0,0,0,.92.52c.32.15.65.31,1,.44.66.26,1.35.49,2,.73l.08-.16.06-.09.07-.08a.66.66,0,0,1,.17-.12.31.31,0,0,1,.1,0l.1,0,.2,0A2.45,2.45,0,0,1,59,77a5.1,5.1,0,0,1,.78.26,15.48,15.48,0,0,1,2.7,1.5l0-.19a.72.72,0,0,1,.09-.2.57.57,0,0,1,.15-.16.89.89,0,0,1,.39-.12,1.79,1.79,0,0,1,.4,0,6.78,6.78,0,0,1,1.55.32,25.71,25.71,0,0,1,2.81,1.06A2.67,2.67,0,0,1,68,79a.63.63,0,0,1,.2-.33.24.24,0,0,1,.09-.06l0,0h0l.18,0a2.44,2.44,0,0,1,.71.1c.23.06.45.13.67.21A19,19,0,0,1,72.35,80a2.51,2.51,0,0,1,0-.27,2.16,2.16,0,0,1,.16-.51.71.71,0,0,1,.41-.37.66.66,0,0,1,.28,0l.13,0,.13,0,.06,0,.06,0,.11.06.22.13a7.1,7.1,0,0,1,.8.65c.25.23.49.46.73.71s.46.49.69.75l.68.76.7.74.74.73c.24.24.48.49.7.75s.19.23.29.35l1.93-.06,1.13,0,.47,0-.09-.14a2.1,2.1,0,0,1-.22-.91,2.69,2.69,0,0,1,.16-.89,4.35,4.35,0,0,1,.35-.76c.13-.23.28-.45.42-.66l.38-.54a.31.31,0,0,0,0-.08l0-.14c0-.11,0-.22,0-.34s0-.48,0-.73a8.28,8.28,0,0,0-.23-1.48c-.12-.49-.26-1-.42-1.45a24.14,24.14,0,0,0-1.06-2.71,11.34,11.34,0,0,0-1.38-.91,5,5,0,0,0-.76-.31,3.34,3.34,0,0,0-.78-.12,6.69,6.69,0,0,0-1.66.21l-1.73.4a38.38,38.38,0,0,1-7.16.94,69,69,0,0,1-7.19-.1l-1.79-.13-.92-.09c-.3,0-.6-.09-.91-.13a17.71,17.71,0,0,1-3.56-1,15.11,15.11,0,0,1-1.68-.79l-.41-.23-.2-.12-.2-.13-.39-.25-.38-.28-.19-.13-.18-.15L50.31,70l-.69-.63A14.83,14.83,0,0,1,48.38,68l-.29-.37-.26-.38c-.09-.13-.18-.26-.26-.39s-.17-.26-.25-.39a17.06,17.06,0,0,1-.86-1.64,18,18,0,0,1-.69-1.71c-.2-.58-.38-1.16-.53-1.75a29.18,29.18,0,0,1-.83-7.21c0-1.21.07-2.41.19-3.61.08-.79.18-1.59.32-2.37-.1.12-.2.24-.29.37s-.23.3-.34.45a21.18,21.18,0,0,0-1.24,1.89c-.19.33-.38.66-.55,1-.08.17-.17.34-.26.51l-.24.51c-.08.17-.15.34-.23.52l-.23.52-.2.53c-.07.18-.14.35-.2.53-.11.36-.24.72-.34,1.09l-.16.54c0,.18-.09.37-.14.55s-.09.37-.13.55l-.11.56c0,.19-.07.37-.1.56l-.08.56A21.44,21.44,0,0,0,40,64a22.43,22.43,0,0,0,.8,4.46,25.53,25.53,0,0,0,1.64,4.23l.33.64a6.4,6.4,0,0,0,.42.49A6.19,6.19,0,0,0,44.87,75.05Z"/><path class="cls-4" d="M84,77.7c.14.49.31,1,.46,1.47a6.69,6.69,0,0,1,.2.77,2.1,2.1,0,0,1,0,.43,1,1,0,0,1,0,.24v.07a14.27,14.27,0,0,1,1.87.95c.37.2.71.45,1.06.68l.51.37.25.19.24.2a17.42,17.42,0,0,1,1.8,1.74,17.16,17.16,0,0,1,1.52,2c.23.35.44.7.66,1.06l.3.55c.1.18.18.37.28.56a21.18,21.18,0,0,1,1,2.3,24.53,24.53,0,0,1,.75,2.39c.1.4.2.81.28,1.22,0,.13.06.26.08.38.18-.23.38-.45.58-.66s.36-.38.55-.56l.3-.26.31-.24c.1-.09.21-.16.31-.24l.15-.12.17-.11a7.41,7.41,0,0,1,.67-.4,11.36,11.36,0,0,1,1.44-.62c.48-.19.94-.4,1.4-.62a14.47,14.47,0,0,0,1.33-.74,8.39,8.39,0,0,0,1.21-.92,4.32,4.32,0,0,0,.93-1.16,2.18,2.18,0,0,0,.24-.69,1.25,1.25,0,0,1,0-.19,1.09,1.09,0,0,0,0-.18.5.5,0,0,0,0-.17.75.75,0,0,0,0-.16,1.06,1.06,0,0,0-.46-.52,2.69,2.69,0,0,0-.67-.3,7.61,7.61,0,0,0-1.5-.27c-.51-.06-1-.08-1.53-.1l-.78,0-.77,0a4.48,4.48,0,0,1-.81-.1l-.1,0,0,0-.06,0-.12,0-.11-.07a.69.69,0,0,1-.19-.23.84.84,0,0,1-.06-.14l0-.07V85.2a1.13,1.13,0,0,1,0-.26c0-.07,0-.15,0-.22l0-.11,0-.1a1.67,1.67,0,0,1,.08-.2,5.49,5.49,0,0,1,.39-.71c.27-.45.58-.87.87-1.29l.42-.62a2.88,2.88,0,0,0,.3-.61s0,0,0-.07v0l-.14-.11a4.22,4.22,0,0,0-.65-.3c-.48-.16-1-.3-1.46-.42s-1-.23-1.5-.33l-1.51-.31-.76-.16L93,79.2,92.27,79l-.77-.18-.4-.13-.21-.11a.44.44,0,0,1-.13-.14.37.37,0,0,1-.05-.11.37.37,0,0,1,0-.11,1,1,0,0,1,.08-.28l0-.1.06-.09a2.1,2.1,0,0,1,.26-.33,23.39,23.39,0,0,1,2.28-2.17c.78-.69,1.59-1.35,2.42-2,.41-.32.84-.63,1.27-.93l.73-.49h-.63a8.27,8.27,0,0,1-1.4-.19c-.44-.09-.87-.21-1.29-.33A21.56,21.56,0,0,0,92,70.8a10.44,10.44,0,0,0-5,.41,14.57,14.57,0,0,0-2.33,1c-.19.1-.37.22-.55.33a6.06,6.06,0,0,0-.53.35l-.52.37-.34.26c.24.91.51,1.81.78,2.71Z"/><path class="cls-4" d="M71.18,79.48a11.87,11.87,0,0,0-1.27-.55c-.22-.08-.44-.14-.66-.2a2.55,2.55,0,0,0-.67-.07l-.16,0h0l0,0-.06,0a.68.68,0,0,0-.13.27,2.42,2.42,0,0,0-.06.66A10.44,10.44,0,0,0,68.26,81c.08.46.17.91.28,1.36a5.48,5.48,0,0,0,.17.67c.08.22.18.43.27.65a5.12,5.12,0,0,1,.25.65,2.29,2.29,0,0,1,.07.28l.56,0,2.27,0h.45a8.66,8.66,0,0,1-.07-.89c0-.69-.14-1.36-.18-2,0-.35,0-.69,0-1a4.73,4.73,0,0,1,0-.65C72,79.88,71.57,79.67,71.18,79.48Z"/><path class="cls-4" d="M119.2,80.87l0-.08a7.12,7.12,0,0,0-.78-1,9.43,9.43,0,0,0-2-1.55,11.32,11.32,0,0,0-4.77-1.54.44.44,0,0,0-.23.81l.13,0,.16,0,.31,0,.31,0,.31,0,.63.12.31.08.31.08.31.08.31.11.31.1c.1,0,.2.08.3.12a9.1,9.1,0,0,1,2.25,1.27l.13.1.12.1.25.22.24.22.23.24a6.25,6.25,0,0,1,.4.5Z"/><path class="cls-4" d="M120,78.83c-.14-.16-.28-.33-.44-.48a9.49,9.49,0,0,0-2-1.55,10.11,10.11,0,0,0-2.3-1,12.3,12.3,0,0,0-2.47-.5.44.44,0,0,0-.11.86l.16,0,.32,0,.31,0,.31,0a12.34,12.34,0,0,1,2.46.7,9.22,9.22,0,0,1,2.24,1.28l.13.1.12.1.25.22.23.23a2.5,2.5,0,0,1,.23.23l.3.36c0-.11.06-.22.1-.33S120,79,120,78.83Z"/><path class="cls-4" d="M120.48,76.67a9.83,9.83,0,0,0-2-1.55,11.52,11.52,0,0,0-4.77-1.52.44.44,0,0,0-.44.43.44.44,0,0,0,.21.38l.13,0,.15,0,.31,0,.31,0,.31,0a12,12,0,0,1,2.47.7,9.41,9.41,0,0,1,2.24,1.28l.12.1.13.1.24.22.24.23a2.39,2.39,0,0,1,.22.23l0,0,.2-.67A1.58,1.58,0,0,0,120.48,76.67Z"/><path class="cls-4" d="M97,73.4l.88.17c.58.12,1.16.26,1.73.43s1.13.35,1.69.57l.41.16c.14.06.28.11.41.18a7.55,7.55,0,0,1,.81.39,23.31,23.31,0,0,1,3,1.91,31.6,31.6,0,0,1,2.7,2.2.55.55,0,0,1,.45-.25l.17,0,.15,0,.31,0c.21,0,.42.05.63.1l.62.13.31.08.31.08.31.09.31.1c.2.07.4.13.6.22l.59.25c.2.09.39.2.58.29a9.73,9.73,0,0,1,2.1,1.51c.13.12.26.26.38.39l.24-.17.1-.07-.14-.19-.21-.23-.21-.23c-.07-.07-.16-.14-.22-.21l-.12-.11-.12-.1a9,9,0,0,0-2.1-1.34l-.29-.13-.29-.11-.3-.12-.3-.09-.31-.1-.31-.08-.62-.14L111,79l-.31,0-.31,0-.16,0-.16-.07a.55.55,0,0,1,.29-1l.16,0,.16,0,.31,0c.21,0,.42.05.63.1l.62.13c.1,0,.2,0,.31.07l.31.09.3.08.31.1.61.22.59.26.57.28a9.73,9.73,0,0,1,2.14,1.51,8.4,8.4,0,0,1,.7.76l.28-.15a4.25,4.25,0,0,0-.31-.43l-.2-.23-.21-.23-.22-.21-.12-.11-.11-.1a9.65,9.65,0,0,0-2.1-1.35l-.29-.13-.29-.11-.29-.12-.3-.1-.31-.09-.31-.08-.62-.14a1.7,1.7,0,0,0-.31-.06l-.31,0-.31,0-.17,0a.56.56,0,0,1-.41-.44l-1.58-.8-1.6-.79c-1.07-.52-2.15-1-3.25-1.48-.55-.22-1.1-.45-1.66-.62l-.21-.07-.21,0-.42-.09-.88-.17-1.76-.33-.88-.17-.43-.09-.13,0-1.25.77Z"/><path class="cls-4" d="M122.67,95.74c0-.22.06-.44.1-.66l.06-.32a1.22,1.22,0,0,1-.17-.29,1.5,1.5,0,0,1-.09-.35,2.21,2.21,0,0,1,0-.33q0,.3-.06.6a2.69,2.69,0,0,1-.42,1,2.34,2.34,0,0,1-.86.7,3.13,3.13,0,0,1-1,.27,4.44,4.44,0,0,1-1,0,7,7,0,0,1-1.72-.41q-.27.14-.54.24c-.3.11-.61.21-.92.29l-.31.07h0a8.72,8.72,0,0,0-1,.31,5.28,5.28,0,0,0-.94.42,1.88,1.88,0,0,0-.72.62.66.66,0,0,0-.12.38s0,.07,0,.11,0,.07,0,.1a.49.49,0,0,0,0,.11l0,.12c0,.09.07.17.1.26l.06.28a2.33,2.33,0,0,1,.05.28.59.59,0,0,0,0,.13v.14c0,.19,0,.37,0,.55a3.25,3.25,0,0,1,0,.54,16.93,16.93,0,0,1-.37,2.13q-.22,1-.42,2.1a9.44,9.44,0,0,0-.14,1,4.43,4.43,0,0,0,.07,1,2,2,0,0,0,.41.88,1,1,0,0,0,.35.28,1,1,0,0,0,.43.09,1.35,1.35,0,0,0,.82-.35,2.66,2.66,0,0,0,.51-.64c0-.1,0-.2,0-.31s0-.24,0-.35a3.33,3.33,0,0,1,.16-.71l.08-.17c-.09-.34-.17-.67-.24-1-.11-.52-.21-1-.28-1.56a7,7,0,0,1-.07-.8v-.2a.75.75,0,0,1,0-.21,1.3,1.3,0,0,1,.14-.39,3,3,0,0,1,.44-.68,5,5,0,0,1,.54-.59,3.38,3.38,0,0,1,.63-.5,2.08,2.08,0,0,1,.36-.2.65.65,0,0,1,.21-.06.44.44,0,0,1,.25,0l.06,0,0,.06a.37.37,0,0,1,0,.11c0,.07,0,.14,0,.21s0,.26,0,.4,0,.53,0,.79c-.06,1-.17,1.9-.31,2.85l.46-.32c.2-.78.42-1.56.66-2.33a16,16,0,0,1,.91-2.42,2.81,2.81,0,0,1,.34-.55,1.09,1.09,0,0,1,.26-.22l.27-.18c.38-.21.78-.38,1.16-.56a6.74,6.74,0,0,0,1.12-.61,2,2,0,0,0,.41-.36C122.61,96.38,122.63,96.06,122.67,95.74Z"/><path class="cls-4" d="M131.83,83.82a8.47,8.47,0,0,1-.07.88h.45c.76,0,1.51,0,2.27,0l.56,0a2.68,2.68,0,0,1,.07-.27,5.26,5.26,0,0,1,.25-.66,6.29,6.29,0,0,0,.26-.65,3.9,3.9,0,0,0,.18-.67c.11-.45.2-.9.28-1.35a10.44,10.44,0,0,0,.15-1.37,3,3,0,0,0,0-.67.51.51,0,0,0-.14-.26s0,0-.06,0l0,0h0l-.15,0a2.46,2.46,0,0,0-.67.07l-.67.2a11.87,11.87,0,0,0-1.27.55c-.39.19-.77.4-1.15.62,0,.22,0,.43,0,.65s0,.68,0,1C132,82.46,131.85,83.13,131.83,83.82Z"/><path class="cls-4" d="M131.65,79.27a.59.59,0,0,0-.31-.31.6.6,0,0,0-.23,0L131,79l-.11,0-.06,0-.06,0-.11,0-.22.12a6.84,6.84,0,0,0-.8.62c-.25.22-.5.47-.73.71s-.47.49-.69.75-.45.51-.65.77a13.9,13.9,0,0,0-1.11,1.71c-.16.28-.33.55-.5.82,1.33,0,2.66.07,4,.08H131c.09-.32.2-.65.3-1a11.21,11.21,0,0,0,.4-2c0-.34.08-.67.09-1a5.46,5.46,0,0,0,0-1A1.6,1.6,0,0,0,131.65,79.27Z"/><path class="cls-4" d="M126.08,85.88l-.76-.07c-.76-.08-1.52-.17-2.28-.29l-1.14-.19-.56-.11-.27,0a1.8,1.8,0,0,1,0,.22,3.18,3.18,0,0,1-.13.51,5.38,5.38,0,0,1-.42.95,4.83,4.83,0,0,1-.26.45,2.11,2.11,0,0,1-.14.22l-.15.22a4.77,4.77,0,0,1-.72.77,12.67,12.67,0,0,1-1.67,1.24c-.58.38-1.17.73-1.77,1.08s-1.18.69-1.77,1l-.43.27-.43.29-.41.29-.22.16-.24.14a1.33,1.33,0,0,1-.56.15l-.16,0-.15,0a.82.82,0,0,1-.25-.2,1.26,1.26,0,0,1-.27-.51,3.12,3.12,0,0,1-.11-.53,7.45,7.45,0,0,1-.05-1.06,1.42,1.42,0,0,1,0-.29c-.11.28-.21.56-.3.85a21.45,21.45,0,0,0-.61,2.39c-.07.41-.14.81-.18,1.22a6,6,0,0,0-.06.61,5.78,5.78,0,0,0,0,.58,1.74,1.74,0,0,0,.49.2,3.25,3.25,0,0,0,1.12,0,7.85,7.85,0,0,0,2.22-.69,16.56,16.56,0,0,0,2.06-1.14,23.5,23.5,0,0,0,1.92-1.4,11.85,11.85,0,0,0,1.7-1.62c.25-.3.49-.62.71-.93.12-.16.22-.32.32-.48a2.13,2.13,0,0,0,.16-.25l.15-.25.09-.14.11-.14a1.44,1.44,0,0,1,.27-.28.94.94,0,0,1,.5-.24h.19l.18.05a.88.88,0,0,1,.28.17,1.26,1.26,0,0,1,.27.38,1.4,1.4,0,0,1,.13.34,3.44,3.44,0,0,1,.12.64c0,.41,0,.82.05,1.22a7.76,7.76,0,0,0,.14,1.18,4.74,4.74,0,0,0,.16.57.14.14,0,0,0,0,.06l.09,0-.09,0a2.77,2.77,0,0,0,.22.46l.09.13,0-.08.12-.2.12-.22.25-.48c.17-.33.34-.67.53-1s.37-.69.54-1a9.34,9.34,0,0,0,.44-1.1,22.85,22.85,0,0,0,.56-2.31C126,87,126,86.45,126.08,85.88Z"/><path class="cls-4" d="M128.51,89.52a8.88,8.88,0,0,0,.86-1.75,4.39,4.39,0,0,0,.27-1.68c-1,0-2-.08-3-.16-.16.58-.29,1.15-.42,1.73-.18.77-.35,1.55-.52,2.33-.08.4-.16.79-.21,1.2s-.08.6-.14.91c.31.1.61.19.92.26a14.63,14.63,0,0,0,1.11-1.24A14.18,14.18,0,0,0,128.51,89.52Z"/><path class="cls-4" d="M131.34,89.85a8.91,8.91,0,0,0,.57-.93,5.26,5.26,0,0,0,.4-1,4.41,4.41,0,0,0,.15-1,4.56,4.56,0,0,0-.08-.82h-2a5.1,5.1,0,0,1-.46,1.89,9.36,9.36,0,0,1-1,1.78,14.82,14.82,0,0,1-1.32,1.55c-.36.38-.75.74-1.15,1.09a11.45,11.45,0,0,0,2,.3,16.29,16.29,0,0,0,1.43-1.18A11.27,11.27,0,0,0,131.34,89.85Z"/><path class="cls-4" d="M123.39,94.14a.1.1,0,0,0-.08,0h0C123.35,94.15,123.41,94.17,123.39,94.14Z"/><path class="cls-4" d="M121.78,90.59c-.07-.18-.14-.35-.21-.5a2.35,2.35,0,0,0-.1-.22l0,0a2.13,2.13,0,0,0-.29.31,3,3,0,0,0-.18.24,2.31,2.31,0,0,0-.2.24c-.14.15-.28.31-.43.45-.29.29-.59.56-.89.83-.62.53-1.22,1-1.85,1.55s-1.28,1-2,1.39A17.52,17.52,0,0,1,113.54,96a10.06,10.06,0,0,1-1.38.53,16.43,16.43,0,0,0,1.85-.13c.37,0,.74-.11,1.1-.19l.37-.09a2.49,2.49,0,0,0,.32-.08,7.79,7.79,0,0,0,.85-.31,5.41,5.41,0,0,0,.79-.42,3.59,3.59,0,0,0,.68-.54c.21-.22.41-.45.62-.68.4-.47.77-1,1.18-1.45a3.67,3.67,0,0,1,.7-.72,1.41,1.41,0,0,1,.52-.26l.17,0a1.08,1.08,0,0,1,.35,0l.15.07a1.34,1.34,0,0,1,.42.4l.08.13a5.47,5.47,0,0,0-.15-.58C122.05,91.33,121.91,91,121.78,90.59Z"/><path class="cls-4" d="M124.84,94l-.08-.25a3.14,3.14,0,0,1-.68.9,1.59,1.59,0,0,1-.41.26l-.07,0-.09,0-.13,0c0,.07,0,.14-.07.2s-.11.41-.15.61a9.2,9.2,0,0,0-.21,1.26c0,.21,0,.42,0,.64s0,.41-.05.65a2.86,2.86,0,0,1-.19.65l-.07.16-.08.15-.16.29a9.82,9.82,0,0,1-.79,1q-.44.48-.9.93l-1,.88-1,.85-.82.72a.83.83,0,0,0,0,.15l-.11,0-1,.86-.48.42-.23.22-.11.11-.09.1a1.76,1.76,0,0,0-.36,1,5.25,5.25,0,0,0,.07,1.19c.08.41.18.81.3,1.21s.27.8.42,1.19l.06.15.06-.15.13-.22a1.56,1.56,0,0,1,.16-.2,3.86,3.86,0,0,1,.66-.55l.58-.41c.37-.3.74-.6,1.09-.93a24.44,24.44,0,0,0,3.64-4.53,25.81,25.81,0,0,0,1.41-2.58,17.21,17.21,0,0,0,1-2.75,7,7,0,0,0,.26-1.43,2.16,2.16,0,0,0,0-.36,2,2,0,0,0,0-.35c0-.24-.1-.48-.16-.72s-.11-.48-.17-.72S124.9,94.27,124.84,94Z"/><path class="cls-4" d="M145.61,81.85a7.8,7.8,0,0,0,.38-.7,16,16,0,0,0,.62-1.48,5.47,5.47,0,0,0,.31-1.55,1.5,1.5,0,0,0-.17-.75l-.05-.08-.06-.07a.91.91,0,0,0-.16-.11.2.2,0,0,0-.08,0l-.09,0-.19,0a2.28,2.28,0,0,0-.78.07,4,4,0,0,0-.76.25,10.69,10.69,0,0,0-1.44.71c-.44.26-.87.53-1.29.83v.09a6.75,6.75,0,0,1-.3,1.55c-.16.51-.31,1-.5,1.5-.09.25-.19.49-.27.74s-.15.51-.22.77a5.08,5.08,0,0,1-.25.75v0c1.07-.12,2.13-.26,3.19-.43l.87-.16h0l.1-.17c.07-.11.16-.22.22-.33s.31-.44.47-.65S145.47,82.08,145.61,81.85Z"/><path class="cls-4" d="M164.17,58.87c0-.19-.07-.38-.1-.56l-.11-.56c0-.18-.09-.37-.13-.55s-.09-.37-.14-.55l-.15-.55c-.1-.36-.23-.72-.35-1.08-.06-.18-.13-.36-.2-.54l-.2-.52-.23-.53c-.07-.17-.15-.34-.23-.51l-.24-.52c-.09-.16-.17-.33-.26-.5-.17-.34-.36-.66-.55-1A21.33,21.33,0,0,0,160,49l-.33-.45-.3-.37c.14.79.24,1.58.32,2.38a36,36,0,0,1,.19,3.6,29.18,29.18,0,0,1-.83,7.21c-.15.59-.33,1.18-.52,1.76a18,18,0,0,1-.69,1.71c-.26.56-.55,1.11-.86,1.64l-.25.39c-.08.13-.17.26-.26.39l-.27.38L156,68a13.76,13.76,0,0,1-1.25,1.39c-.22.23-.46.43-.69.64l-.36.29-.18.15-.19.14-.38.27-.39.26-.2.12-.2.12-.41.23a14.45,14.45,0,0,1-1.69.79,16.74,16.74,0,0,1-3.56,1c-.3,0-.6.1-.91.13s-.62.07-.91.09l-1.79.13a66.31,66.31,0,0,1-7.19.1,38.36,38.36,0,0,1-7.16-.93l-1.73-.41a6.69,6.69,0,0,0-1.66-.21,3.52,3.52,0,0,0-.79.13,4.09,4.09,0,0,0-.75.31,9.39,9.39,0,0,0-1.38.91,23.32,23.32,0,0,0-1.07,2.7l-.11.35-.12.43c-.07.22-.13.45-.19.67v0c0,.19-.08.38-.11.57s0,.29-.07.44,0,.3,0,.44a1.69,1.69,0,0,1,0,.23,1.76,1.76,0,0,0,0,.23V80a1.42,1.42,0,0,0,0,.29v0a.59.59,0,0,0,0,.14.16.16,0,0,0,0,.09l.37.54c.15.21.29.43.43.66a5.23,5.23,0,0,1,.35.76,2.62,2.62,0,0,1,.15.88,1.91,1.91,0,0,1-.22.91,1.09,1.09,0,0,1-.08.15l.46,0,1.14,0,1.92.06c.1-.12.19-.24.29-.35s.47-.51.7-.76l.74-.72c.24-.24.47-.49.7-.74l.68-.77.69-.74c.23-.24.48-.49.73-.72a8.3,8.3,0,0,1,.8-.64l.22-.13.12-.06.06,0,.06,0,.12,0,.13,0a.45.45,0,0,1,.28,0,.68.68,0,0,1,.41.37,1.78,1.78,0,0,1,.16.51c0,.08,0,.18.05.27a19.5,19.5,0,0,1,2.39-1.16c.22-.08.44-.15.67-.21a2.44,2.44,0,0,1,.71-.1l.18,0H136l.05,0a.31.31,0,0,1,.1,0,.77.77,0,0,1,.19.34,2,2,0,0,1,.08.48,27.94,27.94,0,0,1,2.81-1.06,7.36,7.36,0,0,1,1.55-.32,1.8,1.8,0,0,1,.4,0,1,1,0,0,1,.39.13.54.54,0,0,1,.15.15.72.72,0,0,1,.09.2l0,.19a15.48,15.48,0,0,1,2.7-1.5,5.32,5.32,0,0,1,.77-.25,2.27,2.27,0,0,1,.82-.08l.2,0,.1,0,.1,0a.65.65,0,0,1,.16.13l.08.08.06.08a1.11,1.11,0,0,1,.07.16c.69-.23,1.37-.47,2-.73.34-.13.67-.28,1-.44a4,4,0,0,0,.92-.52l.09-.08.08-.11a.62.62,0,0,1,.3-.18,2.31,2.31,0,0,1,.59,0c.37,0,.74.08,1.11.13.73.11,1.46.22,2.19.26a10.58,10.58,0,0,0,2.18-.08,6.8,6.8,0,0,0,2.07-.63,6.57,6.57,0,0,0,2.16-1.77l.33-.65a26.71,26.71,0,0,0,1.64-4.22,23.31,23.31,0,0,0,.8-4.46,21.44,21.44,0,0,0-.13-4.53Z"/><path class="cls-4" d="M157.42,75.93a11.88,11.88,0,0,1-2.23.06c-.74,0-1.48-.16-2.21-.26-.36,0-.73-.1-1.08-.12a1.52,1.52,0,0,0-.52,0,.34.34,0,0,0-.16.1l0,.06-.05.06L151,76a2.32,2.32,0,0,1-.44.39,3,3,0,0,1-.48.31c-.17.09-.35.16-.52.23a3.75,3.75,0,0,1-.53.19,11.85,11.85,0,0,1-2.12.49,2.33,2.33,0,0,1,.07.53,5.48,5.48,0,0,1-.27,1.6,13.88,13.88,0,0,1-.59,1.51l-.34.73-.32.75a7,7,0,0,1-.34.74.31.31,0,0,1,0,.1l.6-.12c.74-.16,1.47-.33,2.2-.53a32.47,32.47,0,0,0,4.27-1.44c.68-.29,1.37-.6,2-1,.33-.17.65-.36,1-.54l.48-.3.24-.15.23-.16A19.5,19.5,0,0,0,157.93,78a16.94,16.94,0,0,0,1.59-1.58c.24-.29.49-.57.71-.87s.43-.61.64-.93c.08-.13.15-.26.23-.38a6.12,6.12,0,0,1-1.52,1A7.1,7.1,0,0,1,157.42,75.93Z"/><path class="cls-4" d="M140.88,81.93c.19-.49.37-1,.53-1.48a7.09,7.09,0,0,0,.32-1.52V78.8h0a1.13,1.13,0,0,0,0-.25.44.44,0,0,0-.19-.29.8.8,0,0,0-.35-.11,1.61,1.61,0,0,0-.38,0,7.29,7.29,0,0,0-1.53.31c-.5.15-1,.33-1.48.52s-.91.37-1.35.58v.12a9.53,9.53,0,0,1-.08,1.41c-.05.46-.12.92-.2,1.39,0,.23-.08.46-.1.69s0,.47,0,.71a5.35,5.35,0,0,1-.08.7v0l.82,0c.76,0,1.51-.1,2.26-.17l.62-.06.15-.32c.12-.24.26-.46.39-.69s.27-.45.39-.68A7.79,7.79,0,0,0,140.88,81.93Z"/><path class="cls-4" d="M136.33,86.57a4.72,4.72,0,0,1-.15,1.12,6.14,6.14,0,0,1-.93,2,9.4,9.4,0,0,1-1.31,1.51,13.4,13.4,0,0,0,4.38-5.4l-2,.17A4.46,4.46,0,0,1,136.33,86.57Z"/><path class="cls-4" d="M135.59,87.56a3.93,3.93,0,0,0,.06-1,4.31,4.31,0,0,0-.1-.61l-1,0-1.24,0a4.41,4.41,0,0,1,0,.89,5,5,0,0,1-.3,1.2,5.65,5.65,0,0,1-.54,1.07,7.24,7.24,0,0,1-.71.94,11.43,11.43,0,0,1-1.68,1.58,14.66,14.66,0,0,1-1.38,1,8.73,8.73,0,0,0,4-.8l.35-.17c.23-.21.46-.44.67-.67a10,10,0,0,0,1.24-1.64A5.57,5.57,0,0,0,135.59,87.56Z"/><path class="cls-6" d="M91.65,116.68h0Z"/><path class="cls-4" d="M102.08,101.78c-1.43,3.35-.49,6.31,2.77,8.82l.85,0c1,0,1.9,0,2.85.08a5.57,5.57,0,0,1-3.53-3.32c-1-2.39.09-5.18,1-7.42A6.54,6.54,0,0,0,106.8,97c-.36-.1-.74-.18-1.11-.25a15.58,15.58,0,0,0-2.45-.28C103.54,97.12,103.31,98.89,102.08,101.78Z"/><path class="cls-4" d="M94.24,110.73a.51.51,0,0,0,.27,0h.2l.23,0a35.11,35.11,0,0,1,3.7-.16c.62,0,1.23,0,1.84,0h.17a11.15,11.15,0,0,1-4.05-5.38c-.52-1.77.52-3.28,1.53-4.74s1.78-2.58,1.39-3.9l-.88.14a13.21,13.21,0,0,0-1.75.45,6.78,6.78,0,0,0-1.61.76,2.36,2.36,0,0,0-.62.6,1,1,0,0,0-.15.38.67.67,0,0,0,0,.2v.1l0,.11c.11.6.23,1.2.33,1.81a14.64,14.64,0,0,1,.22,3.69c0,.15,0,.31,0,.46s-.05.31-.08.47l-.1.46-.1.45q-.24.89-.45,1.77c-.07.3-.13.59-.18.88a4,4,0,0,0-.08.85,1,1,0,0,0,.06.35A.3.3,0,0,0,94.24,110.73Z"/><path class="cls-4" d="M103.88,111.25c-.54,0-1.08.09-1.62.16v0h-.19v0l-1.61-.16-1.82-.09c-.66,0-1.32,0-2,0l.51.16a6.21,6.21,0,0,1,.93.37,4.51,4.51,0,0,1,.44.22l.22.13.21.12q.82.5,1.68.93l.86.39.22.08.21.07.18,0h.1l.19,0,.21-.07.21-.08c.29-.12.58-.25.86-.39.57-.29,1.13-.6,1.69-.93l.2-.12.22-.13.45-.22a6.21,6.21,0,0,1,.93-.37l.5-.16c-.66,0-1.31,0-2,0S104.49,111.2,103.88,111.25Z"/><path class="cls-4" d="M98.22,100.58c-1,1.44-2,2.93-1.52,4.64a11.29,11.29,0,0,0,4.15,5.43l1.31.1,1.69-.12.82,0c-3.22-2.52-4.13-5.5-2.69-8.87,1.2-2.83,1.47-4.71,1.13-5.26-.29,0-.58,0-.87,0h-.15a14.44,14.44,0,0,0-2.46.12C100,98,99.15,99.24,98.22,100.58Z"/><path class="cls-4" d="M122.58,96.92l-.31.27a7.94,7.94,0,0,1-1.13.66c-.38.2-.77.38-1.12.6a2.2,2.2,0,0,0-.25.17l-.11.09-.09.09a3.2,3.2,0,0,0-.29.51,18.25,18.25,0,0,0-.8,2.4c-.16.6-.31,1.21-.46,1.81l.54-.4c.35-.25.69-.52,1-.79s.65-.56,1-.87a9.3,9.3,0,0,0,1.62-2,2.92,2.92,0,0,0,.4-1.15c0-.19,0-.42,0-.64s0-.43,0-.65C122.57,97,122.58,97,122.58,96.92Z"/><path class="cls-4" d="M114,113.43a3,3,0,0,0-.51-.75,3.33,3.33,0,0,0-.71-.59,5.87,5.87,0,0,0-.83-.42,6.63,6.63,0,0,0-.9-.25,6.5,6.5,0,0,0-1.87-.09c-.31,0-.62.08-.93.14-.15,0-.31.07-.46.12l-.22.07-.23.08a7.12,7.12,0,0,0-.86.36l-.42.23-.2.12-.2.12q-.42.27-.84.51a4.23,4.23,0,0,1-.42.25c-.14.08-.28.17-.42.24-.29.16-.58.31-.89.45l-.23.11-.25.09-.29.07H102l-.29-.07-.24-.09-.24-.11c-.3-.14-.6-.29-.88-.45a3.62,3.62,0,0,1-.43-.24l-.42-.25c-.28-.16-.56-.33-.83-.51l-.21-.12-.2-.12-.41-.23a6.63,6.63,0,0,0-.87-.36l-.22-.08-.23-.07-.45-.12c-.31-.06-.62-.11-.93-.14a6.58,6.58,0,0,0-1.88.09,6.92,6.92,0,0,0-.89.25,5,5,0,0,0-.83.42,3.33,3.33,0,0,0-.71.59,3,3,0,0,0-.51.75,3.65,3.65,0,0,0-.26.87,7.26,7.26,0,0,0-.06.93,4.7,4.7,0,0,0,.08.92,1.62,1.62,0,0,0,.12.43,1.41,1.41,0,0,0,.21.38,2.74,2.74,0,0,0,.65.62c.25.19.53.37.79.56a14,14,0,0,1,1.53,1.23l.35.35.17.16a1.29,1.29,0,0,0,.17.16,3.17,3.17,0,0,0,.36.28l.39.26a9.61,9.61,0,0,0,3.56,1.19,15.08,15.08,0,0,0,1.9.18,15.44,15.44,0,0,0,1.8,0h.09a15.62,15.62,0,0,0,1.81,0,14.92,14.92,0,0,0,1.89-.18,9.49,9.49,0,0,0,3.56-1.19,3.3,3.3,0,0,0,.39-.26c.12-.09.25-.18.36-.28s.12-.11.18-.16.11-.1.16-.16l.36-.35a13,13,0,0,1,1.52-1.23c.27-.19.54-.37.79-.56a2.74,2.74,0,0,0,.65-.62,1.41,1.41,0,0,0,.21-.38,1.62,1.62,0,0,0,.12-.43,4.7,4.7,0,0,0,.08-.92,7.26,7.26,0,0,0-.06-.93A2.92,2.92,0,0,0,114,113.43ZM97.4,118a.9.9,0,0,1-.85.8,2,2,0,0,1-.6,0,3.53,3.53,0,0,1-.56-.14,10.65,10.65,0,0,1-2.09-1l-.48-.29-.48-.29-.48-.3-.21-.12h-.07a.31.31,0,0,1-.13-.06l-.09-.07-.09-.14a1.3,1.3,0,0,1-.09-.39,1.88,1.88,0,0,1,0-.34,2.59,2.59,0,0,1,.15-.61,3.65,3.65,0,0,1,.58-1.06,5.2,5.2,0,0,1,.85-.84,2.62,2.62,0,0,1,.53-.33,2,2,0,0,1,.64-.11,2.17,2.17,0,0,1,.62.1c.09,0,.19.07.28.12l.26.14a4.22,4.22,0,0,1,.9.74,5.65,5.65,0,0,1,1.42,3.05A3.12,3.12,0,0,1,97.4,118Zm15.66-1.61a.42.42,0,0,1-.09.14.71.71,0,0,1-.09.07.26.26,0,0,1-.13.06h-.06l-.22.12-.46.3-.48.29-.49.29a10.83,10.83,0,0,1-2.08,1,4,4,0,0,1-.57.14,2,2,0,0,1-.6,0,1,1,0,0,1-.58-.25,1,1,0,0,1-.27-.55,3.64,3.64,0,0,1,0-1.14,5.06,5.06,0,0,1,.27-1.1,4.83,4.83,0,0,1,.48-1,5.09,5.09,0,0,1,.68-.92,3.94,3.94,0,0,1,.89-.74l.27-.14a2.36,2.36,0,0,1,.28-.12,2.17,2.17,0,0,1,.62-.1,1.9,1.9,0,0,1,.63.11,2.44,2.44,0,0,1,.54.33,4.77,4.77,0,0,1,.84.84,3.94,3.94,0,0,1,.59,1.06,3.22,3.22,0,0,1,.16.61c0,.11,0,.22,0,.34a1.14,1.14,0,0,1-.11.4Z"/><path class="cls-4" d="M117.15,100.62a2.56,2.56,0,0,0,0-.39c0-.12-.06-.26-.11-.28a.45.45,0,0,0-.3,0,2,2,0,0,0-.32.18,5.68,5.68,0,0,0-1.13,1.06,3,3,0,0,0-.41.64,1.38,1.38,0,0,0-.12.34,1.23,1.23,0,0,0,0,.19v.18a6.85,6.85,0,0,0,.07.78c.11.81.26,1.61.42,2.42,0-.06.07-.11.1-.16a.93.93,0,0,1,.13-.15l.13-.14.13-.11L116,105l.52-.39.41-.29c.12-1,.22-2,.26-2.94C117.15,101.14,117.16,100.87,117.15,100.62Z"/><path class="cls-7" d="M112.69,116.68h0Z"/><path class="cls-4" d="M116.87,115.88l-.08-.36-.16-.73c-.1-.49-.2-1-.29-1.47a9.91,9.91,0,0,1-.15-1.53v-.21a1.48,1.48,0,0,1,0-.21v0c-.13-.22-.26-.44-.38-.66s-.19-.39-.28-.59-.17-.41-.25-.62-.14-.42-.2-.63a4.65,4.65,0,0,1-.15-.59l-.29.26a1.83,1.83,0,0,1-1.15.4,1.39,1.39,0,0,1-.6-.17,1.68,1.68,0,0,1-.47-.41,2.29,2.29,0,0,1-.43-1.06,5.73,5.73,0,0,1,.15-2.19c.16-.7.31-1.39.48-2.1a16.74,16.74,0,0,0,.4-2.09,2.45,2.45,0,0,0,0-.27v-.26a2.39,2.39,0,0,0-.06-.53,3.1,3.1,0,0,0-.38-1l0,0,0-.07-.06-.14a.75.75,0,0,0,0-.16s0-.11,0-.16a1.09,1.09,0,0,1,.16-.64,1.71,1.71,0,0,1,.39-.46,3.12,3.12,0,0,1,.47-.34l.1-.05c-.47,0-.93,0-1.39,0s-.86,0-1.29-.07a3,3,0,0,1-.9-.07,2.22,2.22,0,0,1-.6-.24l-.14-.09-.13-.1-.23-.17a6.47,6.47,0,0,0-2.1-.92,11.38,11.38,0,0,0-2.32-.33c-.39,0-.77,0-1.17,0s-.73,0-1.08.07h-.08c-.35,0-.72-.06-1.09-.07s-.77,0-1.17,0a11.29,11.29,0,0,0-2.31.33,6.47,6.47,0,0,0-2.1.92l-.23.17-.13.1-.14.09a2.22,2.22,0,0,1-.6.24,3,3,0,0,1-.9.07c-.43,0-.86.06-1.29.07s-.93,0-1.39,0l.1.05a2.69,2.69,0,0,1,.47.34,2,2,0,0,1,.4.46,1.17,1.17,0,0,1,.15.64.88.88,0,0,1,0,.16,1.42,1.42,0,0,1,0,.16.53.53,0,0,1-.06.14l0,.07,0,0a3.1,3.1,0,0,0-.38,1,3.15,3.15,0,0,0,0,.53v.27a2.46,2.46,0,0,0,0,.26,16.57,16.57,0,0,0,.41,2.1c.16.7.33,1.39.48,2.1a5.69,5.69,0,0,1,.15,2.18,2.29,2.29,0,0,1-.43,1.07,1.64,1.64,0,0,1-.47.4,1.26,1.26,0,0,1-.6.17,1.78,1.78,0,0,1-1.15-.39l-.29-.26c0,.2-.09.39-.14.59s-.13.42-.21.63-.15.4-.25.62-.18.39-.28.58-.25.45-.38.67,0,0,0,0a1.48,1.48,0,0,1,0,.21v.2a9.92,9.92,0,0,1-.15,1.54c-.09.5-.19,1-.29,1.47l-.16.73-.08.36-.07.36a8.83,8.83,0,0,0-.06,2.9,5.37,5.37,0,0,0,.43,1.34,4.23,4.23,0,0,0,.75,1.12A5.77,5.77,0,0,0,90.76,123c.21.08.43.16.65.22l.33.08.33.06a10.88,10.88,0,0,0,1.4.14c1,0,1.93,0,2.9,0,1.9-.09,3.82-.26,5.73-.44h.14c1.9.18,3.82.35,5.72.44,1,0,2,.06,2.91,0a10.91,10.91,0,0,0,1.39-.14l.33-.06.32-.08c.23-.07.45-.14.66-.22a5.9,5.9,0,0,0,2.25-1.39,4.26,4.26,0,0,0,.76-1.12,5.39,5.39,0,0,0,.41-1.35,8.82,8.82,0,0,0-.06-2.9Zm-2.25.35a2.19,2.19,0,0,1-.14.5,2.12,2.12,0,0,1-.25.47,3.56,3.56,0,0,1-.74.71l-.8.57a11.24,11.24,0,0,0-1.46,1.22l-.33.34c-.12.11-.24.24-.37.35a3,3,0,0,1-.39.31l-.41.29a8.75,8.75,0,0,1-1.81.84c-.31.1-.63.2-1,.28s-.64.15-1,.2a16,16,0,0,1-2,.24q-.94.06-1.89,0c-.62,0-1.25,0-1.88,0a16,16,0,0,1-2-.24c-.33,0-.65-.12-1-.2l-1-.28A8.75,8.75,0,0,1,94.6,121a3.81,3.81,0,0,1-.41-.29,4.08,4.08,0,0,1-.39-.31c-.13-.11-.25-.24-.37-.35l-.33-.34a10.61,10.61,0,0,0-1.46-1.22c-.26-.19-.53-.37-.79-.57a3.38,3.38,0,0,1-.75-.71,2.12,2.12,0,0,1-.25-.47,2.19,2.19,0,0,1-.14-.5,4.82,4.82,0,0,1-.08-1,8.26,8.26,0,0,1,.06-1,3.55,3.55,0,0,1,1.67-2.47,5.46,5.46,0,0,1,.9-.46,6.7,6.7,0,0,1,1-.28l.55-.08a.75.75,0,0,1-.07-.12.61.61,0,0,1,0-.12,1.68,1.68,0,0,1-.07-.5,4.31,4.31,0,0,1,.11-.94c.06-.31.13-.6.21-.9.16-.59.34-1.17.51-1.76a9.8,9.8,0,0,0,.38-1.77,13,13,0,0,0-.15-3.63c-.1-.6-.22-1.2-.33-1.8l0-.12v-.12a2.18,2.18,0,0,1,0-.25,1.28,1.28,0,0,1,.17-.46,2.38,2.38,0,0,1,.66-.68,7.19,7.19,0,0,1,1.66-.84l.44-.15.44-.14c.29-.09.59-.18.89-.25.6-.16,1.2-.26,1.81-.37s1.14-.15,1.72-.19h.14c.58,0,1.15.1,1.71.19s1.22.22,1.82.37a9,9,0,0,1,.89.25,4.56,4.56,0,0,1,.44.14l.44.15a8.15,8.15,0,0,1,1.13.51h0c.18.1.35.21.52.32a2.47,2.47,0,0,1,.65.68,1.35,1.35,0,0,1,.18.47v.37l0,.11c-.11.6-.23,1.2-.33,1.8a13,13,0,0,0-.15,3.63,9.13,9.13,0,0,0,.39,1.78c.16.58.34,1.16.5,1.76.08.29.16.59.22.9a4.14,4.14,0,0,1,.1.93,1.4,1.4,0,0,1-.06.5.69.69,0,0,0,0,.13l-.07.11.55.09a6.2,6.2,0,0,1,1,.27,5.86,5.86,0,0,1,.9.46,3.76,3.76,0,0,1,1.36,1.49,3.39,3.39,0,0,1,.31,1,6.63,6.63,0,0,1,.07,1A4.81,4.81,0,0,1,114.62,116.23Z"/></g><g id="Capa_39" data-name="Capa 39"><path class="cls-8" d="M83.42,95.59a2.71,2.71,0,0,0,.85.26,4.69,4.69,0,0,0,.92.06,9.34,9.34,0,0,0,1.4-.13,4.64,4.64,0,0,1-.79-.59c-.23-.22-.44-.45-.66-.68s-.42-.47-.62-.71-.4-.47-.62-.69l-.31-.32c-.11-.1-.21-.2-.31-.28a1.15,1.15,0,0,0-.29-.2.33.33,0,0,0-.24,0,.8.8,0,0,0-.3.19l0,0a5.59,5.59,0,0,0,0,1.78,2.21,2.21,0,0,0,.34.77A1.7,1.7,0,0,0,83.42,95.59Z"/><path class="cls-8" d="M120.07,95.85a2.88,2.88,0,0,0,.85-.26,1.62,1.62,0,0,0,.63-.53,2.09,2.09,0,0,0,.34-.78,5.53,5.53,0,0,0,0-1.77l0,0a.79.79,0,0,0-.31-.18.31.31,0,0,0-.23,0,1.15,1.15,0,0,0-.29.2c-.1.08-.2.18-.31.28l-.31.32c-.21.22-.41.46-.62.69s-.41.47-.61.7a8.7,8.7,0,0,1-.67.69,4,4,0,0,1-.77.58,9.22,9.22,0,0,0,1.39.14A4.86,4.86,0,0,0,120.07,95.85Z"/></g><path class="cls-9" d="M144.94,3a13.58,13.58,0,0,1,11.77,6.8L199.5,83.9a13.58,13.58,0,0,1,0,13.59L156.71,171.6a13.58,13.58,0,0,1-11.77,6.8H59.37a13.58,13.58,0,0,1-11.77-6.8L4.81,97.49a13.63,13.63,0,0,1,0-13.59L47.6,9.8A13.58,13.58,0,0,1,59.37,3h85.57m0-3H59.37A16.64,16.64,0,0,0,45,8.3L2.22,82.4A16.61,16.61,0,0,0,2.22,99L45,173.1a16.64,16.64,0,0,0,14.37,8.3h85.57a16.63,16.63,0,0,0,14.37-8.3L202.1,99a16.66,16.66,0,0,0,0-16.59L159.31,8.3A16.63,16.63,0,0,0,144.94,0Z"/></g></g></svg>