<svg xmlns="http://www.w3.org/2000/svg" viewBox="0 0 52.4 39.86"><defs><style>.cls-1{fill:#fff;}</style></defs><title>Recurso 7</title><g id="Capa_2" data-name="Capa 2"><g id="DC"><path class="cls-1" d="M51.69,20.41a40.2,40.2,0,0,0-2.24-7.73,54.92,54.92,0,0,0-3.79-7.55,5.25,5.25,0,0,0-3.09-2.67C40.88,2,39.24,1.3,37.56.8,36.4.46,35.19.28,34,0a.43.43,0,0,0-.57.28c-.28.64-.62,1.25-.91,1.89a.71.71,0,0,1-.88.51,32,32,0,0,0-4.46-.39c-2.22,0-4.43.24-6.65.4-.3,0-.45,0-.57-.28-.32-.69-.69-1.37-1-2.07A.48.48,0,0,0,18.35,0C17.17.28,16,.44,14.8.8,12.68,1.48,10.6,2.27,8.51,3a1.61,1.61,0,0,0-.7.5,44.28,44.28,0,0,0-4.55,8.36A40.55,40.55,0,0,0,.65,20.74,37.78,37.78,0,0,0,0,27.09C0,29,.05,31,.12,32.88a.84.84,0,0,0,.38.6c1.43,1,2.86,1.92,4.35,2.79A41,41,0,0,0,12.9,39.8a.55.55,0,0,0,.75-.22c.55-.88,1.15-1.75,1.7-2.63.3-.49.54-1,.77-1.45l-4.36-2.14v-.2c.34-.26.66-.53,1-.77a.45.45,0,0,1,.34,0c1.86.65,3.69,1.38,5.58,1.94a18.7,18.7,0,0,0,3.92.74c1.79.15,3.61.14,5.41.13a20,20,0,0,0,5.39-.78c2-.57,3.88-1.33,5.82-2,.11,0,.27-.1.34,0,.36.25.7.53,1.19.91l-4.48,2.2a.1.1,0,0,0,0,.07c.83,1.37,1.65,2.75,2.52,4.09a.8.8,0,0,0,.72.11c1.51-.54,3-1.08,4.5-1.72A40.77,40.77,0,0,0,52,33.45a.81.81,0,0,0,.29-.55c.07-1.77.13-3.55.16-5.32A36,36,0,0,0,51.69,20.41Zm-31.46,5.9a4.39,4.39,0,0,1-6.08-.48,5.83,5.83,0,0,1,.27-8.08,4.56,4.56,0,0,1,6.8.83,5.8,5.8,0,0,1,1,3.37A5.49,5.49,0,0,1,20.23,26.31Zm19.46-4.6a5.22,5.22,0,0,1-2,4.63,4.29,4.29,0,0,1-5.95-.47,5.54,5.54,0,0,1-1.51-4.31A5.23,5.23,0,0,1,32,17.69a4.53,4.53,0,0,1,7,1.38A4.52,4.52,0,0,1,39.69,21.71Z"/></g></g></svg>