<svg xmlns="http://www.w3.org/2000/svg" viewBox="0 0 52.52 53.37"><defs><style>.cls-1{fill:#fff;}</style></defs><title>Recurso 6</title><g id="Capa_2" data-name="Capa 2"><g id="GIT"><path class="cls-1" d="M52.2,23.21A26,26,0,0,0,42.67,6.12c-8.24-6.65-17.36-7.89-27-3.67a25.49,25.49,0,0,0-13.4,14A27.47,27.47,0,0,0,.72,33.6,26.3,26.3,0,0,0,12,50.24a40.36,40.36,0,0,0,5.74,2.95c1,.46,2,0,2-.88.09-1.64,0-3.28,0-5-.68.11-1.25.22-1.82.28-2.76.27-5.92-.81-7.08-4a7.94,7.94,0,0,0-3.21-4.18,6.51,6.51,0,0,1-.92-1A5.22,5.22,0,0,1,8,38.07c2,0,3.26,1.22,4.24,2.82,1.69,2.77,4,3.6,7,2.47a1.08,1.08,0,0,0,.62-.47c.47-1.15.88-2.34,1.27-3.44-.82-.16-1.83-.31-2.82-.57-3.36-.89-6.05-2.67-7.52-6a16.74,16.74,0,0,1-1.22-6.57A11,11,0,0,1,11.91,19,1.31,1.31,0,0,0,12,18a10.74,10.74,0,0,1,.11-5.57c.33-1.21.53-1.3,1.77-1a16.43,16.43,0,0,1,5.32,2.46,1.33,1.33,0,0,0,1,.17,23.12,23.12,0,0,1,10.13-.35A5,5,0,0,0,34.9,13a8.47,8.47,0,0,1,4.38-1.62.79.79,0,0,1,1,.63,11.06,11.06,0,0,1,.23,6.14,1.68,1.68,0,0,0,.24,1,27.48,27.48,0,0,1,1.51,2.69,15.06,15.06,0,0,1,.21,8.94,9.84,9.84,0,0,1-6.16,7.38,47.34,47.34,0,0,1-5.06,1.44,7.45,7.45,0,0,1,1.55,5.24c-.05,2.34,0,4.68,0,7a1.32,1.32,0,0,0,1.79,1.43,5.53,5.53,0,0,0,.79-.24,25.88,25.88,0,0,0,10.91-8A27.37,27.37,0,0,0,52.2,23.21Z"/></g></g></svg>