<svg xmlns="http://www.w3.org/2000/svg" viewBox="0 0 131.76 158.19"><defs><style>.cls-1{fill:#fff;}</style></defs><title>Recurso 26</title><g id="Capa_2" data-name="Capa 2"><g id="Figtex2"><path class="cls-1" d="M65.88,0C29.55,0,0,35.48,0,79.09s29.55,79.1,65.88,79.1,65.88-35.48,65.88-79.1S102.21,0,65.88,0Zm0,153.19C32.31,153.19,5,120,5,79.09S32.31,5,65.88,5s60.88,33.24,60.88,74.09S99.45,153.19,65.88,153.19Z"/><path class="cls-1" d="M47,102.75c.16-8.45,4.26-15.39,11-18.56,7.67-3.61,17.42-1.66,26.08,5.22a1,1,0,0,0,1.24-1.57c-9.26-7.37-19.8-9.41-28.18-5.46-7.42,3.51-12,11.11-12.13,20.33-.27,15.47,11.08,32.11,31.2,46.68.86-.19,1.71-.39,2.56-.61C58.25,134.38,46.68,117.92,47,102.75Z"/><path class="cls-1" d="M68.46,102.51a1,1,0,1,0-1.72,1A70.39,70.39,0,0,0,103.65,134c.52-.51,1-1,1.51-1.57A68.58,68.58,0,0,1,68.46,102.51Z"/><path class="cls-1" d="M28.47,87.08c5.76-16.49,19-27.17,34.58-27.88,19.07-.87,37.71,8.31,43.4,21.33,3.31,7.59,1.49,15.12-5.27,21.78a1,1,0,0,0,1.4,1.42c7.3-7.18,9.32-15.71,5.7-24C102.28,66,82.81,56.31,63,57.2,46.55,58,32.61,69.14,26.58,86.43c-4.82,13.83-4.48,33,6.89,52.34,1.42,1.13,2.88,2.2,4.38,3.18C24.25,121.82,23.46,101.44,28.47,87.08Z"/><path class="cls-1" d="M53.57,38.82c22.26-4.56,46.79,4.12,69.84,24.11-.2-1.08-.43-2.14-.68-3.2-23-19.2-47.32-27.42-69.56-22.87-18.54,3.79-34.25,15.77-46,34.64-.12,1.43-.21,2.88-.26,4.33C18.56,55.54,34.55,42.71,53.57,38.82Z"/><path class="cls-1" d="M105.9,26.6q-2-2.18-4.07-4.13A88.38,88.38,0,0,0,59.91,15a86.6,86.6,0,0,0-30.67,8.13q-2.14,2.05-4.11,4.32A85.66,85.66,0,0,1,60.05,17,87.58,87.58,0,0,1,105.9,26.6Z"/><path class="cls-1" d="M54.69,102.4c.22-5.09,4.43-9.45,8.48-11.12,4.21-1.74,9.56,0,14.69,4.7A10,10,0,0,0,91.42,81.27C80.49,71.2,67.07,68,55.53,72.79c-11,4.55-18.17,15.53-18.73,28.67-.37,8.86,2.12,28.33,26.08,48.93q1.48.09,3,.09c1.09,0,2.17,0,3.25-.11-26-20.56-28.7-40.09-28.33-48.74.49-11.56,6.72-21.2,16.26-25.14a24.69,24.69,0,0,1,9.46-1.86c7.54,0,15.37,3.3,22.19,9.58a6,6,0,0,1,.34,8.48,6,6,0,0,1-8.48.35c-6.32-5.83-13.22-7.82-18.93-5.46C56.58,89.67,51,95.15,50.7,102.23c-.11,2.48.18,22.51,33.87,44.58,1.47-.59,2.92-1.23,4.33-1.95C54.92,123.52,54.6,104.69,54.69,102.4Z"/><path class="cls-1" d="M76.19,97.9a10,10,0,0,0-13.72-3.46C58,97.13,56.44,103,58.94,108c9,18.27,21.9,28.65,34.36,34.31,1.31-.83,2.58-1.71,3.83-2.65-12.38-5.11-25.5-15-34.61-33.43-1.58-3.21-.74-6.73,2-8.37A6,6,0,0,1,72.75,100a63.86,63.86,0,0,0,35.82,28.45q1.34-1.68,2.58-3.45A60.25,60.25,0,0,1,76.19,97.9Z"/><path class="cls-1" d="M59.89,49.15c-19.84,1.43-35.22,12.93-42.2,31.56A66.29,66.29,0,0,0,14.85,115a72,72,0,0,0,7.4,12.17c-.55-1.49-1.07-3-1.52-4.51-4.14-13.91-3.89-28.33.71-40.59C27.84,65,42,54.45,60.18,53.14c1.94-.14,3.84-.21,5.69-.21,25.39,0,42.07,12.74,47.57,26.17,3.89,9.49,1.21,19.76-7.35,28.2a6,6,0,0,1-4.21,1.72h0a6,6,0,0,1-4.17-10.27c7.5-7.4,5.71-13.14,4.59-15.27-7.17-13.59-22.54-21.13-40.1-19.67A35.29,35.29,0,0,0,32.67,86.32c-5.54,14.79-4.11,38.52,15.54,60.91a49.44,49.44,0,0,0,7.58,2.19C33,127,30.89,102.48,36.42,87.72A31.24,31.24,0,0,1,62.5,67.8c15.93-1.33,29.82,5.4,36.22,17.55.7,1.33,1.74,5-3.86,10.55a10,10,0,0,0,7,17.12,10.13,10.13,0,0,0,7.09-2.87c9.77-9.63,12.78-21.5,8.24-32.56C110.69,61.84,90.49,47,59.89,49.15Z"/><path class="cls-1" d="M124.45,69.94c-8.34-8.35-16.32-14.62-24.36-19.2A69.81,69.81,0,0,0,53.93,42l-.11,0C32.68,46.37,17.71,59.74,7,84.45c.18,2.86.48,5.67.93,8.42C18.27,65.09,33.05,50.4,54.56,46c25.38-3.66,46.6,5.2,70.33,30.16Q124.79,73,124.45,69.94Z"/><path class="cls-1" d="M52.17,32a65.58,65.58,0,0,1,13.25-1.32c11.72,0,23.9,3,35.84,8.83a117.36,117.36,0,0,1,19,11.83c-.84-2.38-1.79-4.69-2.82-6.93A115.8,115.8,0,0,0,103,35.88C85.69,27.38,67.83,24.67,51.37,28c-15.06,3.08-28.6,11.13-39.94,23.34a83.49,83.49,0,0,0-2.62,9.25C20.62,45.35,35.43,35.39,52.17,32Z"/><path class="cls-1" d="M116,41.4a73.18,73.18,0,0,0-4.91-8.18C95.19,23.35,77.72,18.7,60.41,19.94c-14.16,1-27.86,6-40.65,14.57a71.79,71.79,0,0,0-4.88,8.59c14.2-11.47,29.72-18,45.82-19.17C79.72,22.55,99,28.71,116,41.4Z"/></g></g></svg>