<svg xmlns="http://www.w3.org/2000/svg" viewBox="0 0 40.34 38.58"><defs><style>.cls-1{fill:#050506;}</style></defs><title>Recurso 1</title><g id="Capa_2" data-name="Capa 2"><g id="CONTRIBUT"><path class="cls-1" d="M4.73,19,0,14.09c.8-.83,1.57-1.65,2.36-2.44a.74.74,0,0,1,.49-.2,2.93,2.93,0,0,0,3-1.78,9.14,9.14,0,0,0,.32-1.59,1.35,1.35,0,0,1,.25-.63c1.31-1.39,2.6-2.82,4-4.13A11,11,0,0,1,18.7,0,11,11,0,0,1,25,2.62a1.68,1.68,0,0,1-1.8.51c-3.48-1.07-6.18.34-8.68,2.63C15.33,7,16.16,8.22,17,9.46c.17.27.37.7.26.92-.31.64.11.92.46,1.27l22,21.81a1.55,1.55,0,0,1,0,2.49c-.66.69-1.31,1.39-2,2.07A1.37,1.37,0,0,1,35.55,38L19.32,20.18l-5.42-6c-.59.5-1.11.28-1.63-.13A15.66,15.66,0,0,0,10.72,13a1,1,0,0,0-.67-.14A3.29,3.29,0,0,0,7.4,15.71c0,.12,0,.26,0,.39s0,.51-.16.64C6.45,17.51,5.6,18.24,4.73,19Z"/><path class="cls-1" d="M18.17,21.24l-1.49,1.58c.44.45.85.89,1.26,1.32s.42.77,0,1.26a2.94,2.94,0,0,1-1.61,1.05,2.7,2.7,0,0,0-1.32.86L4.83,37.92a1.43,1.43,0,0,1-2.41,0c-.63-.66-1.28-1.32-1.91-2a1.5,1.5,0,0,1,0-2.27c3.37-3.51,6.72-7,10.12-10.53a4.12,4.12,0,0,0,1.13-2,2.88,2.88,0,0,1,1.14-1.43c.29-.25.61-.11.89.15.45.43.92.83,1.39,1.24l1.49-1.45Z"/><path class="cls-1" d="M35.68.11l.09.05c.36.38.93.71,1,1.14s-.3.94-.51,1.41c-.56,1.23-1.14,2.46-1.73,3.69a1,1,0,0,1-.45.39,7.28,7.28,0,0,1-1.34.45,5.56,5.56,0,0,0-3,1.89c-2,2.13-4,4.2-6,6.3l-1.56-1.6,2.32-2.44c1.61-1.67,3.22-3.33,4.81-5a1.47,1.47,0,0,0,.31-.56c.29-.91.54-1.83.84-2.74a.88.88,0,0,1,.36-.5C32.43,1.75,34.05.94,35.68.11Z"/></g></g></svg>