<svg xmlns="http://www.w3.org/2000/svg" viewBox="0 0 52.28 52.28"><defs><style>.cls-1{fill:#fff;}</style></defs><title>Recurso 4</title><g id="Capa_2" data-name="Capa 2"><g id="RDIT"><path class="cls-1" d="M51.29,19.44A26.12,26.12,0,0,0,29.56.3C28.92.22,28.29.1,27.65,0h-3c-1.73.33-3.49.56-5.19,1a26,26,0,0,0-19,20.82c-.15.94-.33,1.88-.49,2.82v3a52.83,52.83,0,0,0,1,5.19C4.16,43.29,11.07,49.65,21.81,51.79c.94.18,1.88.33,2.82.49h3c1.36-.24,2.72-.46,4.07-.73a26,26,0,0,0,20.06-21c.15-1,.34-2,.5-2.94v-3C52,22.9,51.73,21.14,51.29,19.44Zm-8.91,9.44a1.79,1.79,0,0,0-.53.95c-.05,3.51-1.84,6-4.64,7.84-4.26,2.81-9,3.45-14,2.91A17.4,17.4,0,0,1,14.06,37c-2.29-1.82-3.78-4.06-3.7-7.13a1.83,1.83,0,0,0-.5-1.07,4.12,4.12,0,0,1-.4-5.5A4.34,4.34,0,0,1,14.85,22a1.77,1.77,0,0,0,1.34,0,21.68,21.68,0,0,1,8.44-2.26,1,1,0,0,0,1-.81c.59-1.92,1.22-3.82,1.81-5.74a1.35,1.35,0,0,1,1.92-1c1.41.39,2.85.69,4.28,1a1.17,1.17,0,0,0,1.39-.39,3.48,3.48,0,0,1,4.3-.87,3.67,3.67,0,0,1,2,3.63,3.7,3.7,0,0,1-3.18,3.09,3.51,3.51,0,0,1-3.8-2.39,1.49,1.49,0,0,0-1.29-1.09c-1.21-.23-2.41-.53-3.74-.82l-1.7,5.33a25.79,25.79,0,0,1,3.34.58c1.72.53,3.39,1.25,5.1,1.84a1.71,1.71,0,0,0,1.2,0,4.35,4.35,0,0,1,5.51,1.2A4.15,4.15,0,0,1,42.38,28.88Z"/><path class="cls-1" d="M30.56,34.09a8.33,8.33,0,0,1-8.87,0c-.3-.18-.8,0-1.21,0,.06.43,0,1,.22,1.27a4.33,4.33,0,0,0,1.77,1.05c1.17.33,2.4.47,3.61.69,2-.12,3.91-.32,5.46-1.68.27-.24.22-.85.31-1.28C31.42,34.09,30.88,33.91,30.56,34.09Z"/><path class="cls-1" d="M23.2,28.44A2.26,2.26,0,0,0,21,26.1a2.48,2.48,0,0,0-2.33,2.28A2.36,2.36,0,0,0,21,30.62,2.16,2.16,0,0,0,23.2,28.44Z"/><path class="cls-1" d="M31.37,26.1a2.32,2.32,0,0,0-2.29,2.26,2.17,2.17,0,0,0,2.14,2.25,2.32,2.32,0,0,0,2.4-2.15A2.47,2.47,0,0,0,31.37,26.1Z"/><path class="cls-1" d="M37.69,16.5a1.31,1.31,0,0,0,1.52-1.36,1.43,1.43,0,0,0-1.4-1.54c-.72-.12-1.49.65-1.52,1.6A1.28,1.28,0,0,0,37.69,16.5Z"/></g></g></svg>