<svg xmlns="http://www.w3.org/2000/svg" viewBox="0 0 173.92 165.3"><defs><style>.cls-1{fill:#fff;}</style></defs><title>Recurso 22</title><g id="Capa_2" data-name="Capa 2"><g id="Figtex2"><path class="cls-1" d="M173.74,18.68c-.06-.45-.12-.9-.21-1.34,0-.23-.09-.46-.14-.69-.09-.42-.2-.84-.32-1.25-.06-.21-.12-.43-.19-.64-.16-.5-.34-1-.53-1.47,0-.11-.08-.22-.13-.32-.24-.57-.51-1.12-.79-1.65-.12-.22-.24-.43-.37-.64s-.38-.65-.58-1L170,9c-.2-.28-.41-.55-.62-.82s-.35-.45-.54-.67-.46-.52-.69-.77-.65-.66-1-1-.54-.51-.83-.76-.52-.41-.79-.62l-.66-.49L164,3.33c-.22-.14-.44-.28-.67-.41s-.62-.36-.94-.52l-.65-.32a23,23,0,0,0-2.57-1h0l-1-.28-.87-.22-.9-.18c-.37-.07-.75-.12-1.13-.17s-.48-.07-.73-.09c-.64-.06-1.29-.1-1.94-.1h0c-.65,0-1.3,0-1.94.1-.25,0-.49.06-.74.09s-.75.1-1.12.17-.61.11-.9.18L147,.76l-1,.28h0a22.26,22.26,0,0,0-2.57,1l-.65.32c-.32.16-.63.34-.94.52s-.45.27-.67.41-.59.38-.87.58-.44.32-.66.49-.54.41-.79.62-.56.5-.84.76-.66.65-1,1-.47.5-.69.77-.36.44-.54.67-.42.54-.62.82l-.47.69c-.2.32-.4.64-.58,1s-.25.42-.37.64c-.28.53-.55,1.08-.79,1.65-.05.1-.08.21-.13.32q-.28.72-.54,1.47l-.18.64c-.12.41-.23.83-.32,1.25,0,.23-.1.46-.14.69-.09.43-.15.86-.2,1.3L38.93,40.8c-.18-.28-.39-.53-.59-.8-.07-.09-.13-.18-.2-.26-.29-.38-.59-.74-.9-1.09l-.32-.35q-.45-.49-.93-1l-.4-.36c-.32-.29-.64-.58-1-.85l-.4-.31c-.59-.44-1.2-.86-1.83-1.25-.26-.15-.51-.32-.77-.46s-.54-.28-.81-.41-.62-.32-.94-.46l-.8-.32c-.34-.14-.69-.27-1-.38l-.8-.25c-.38-.11-.76-.21-1.14-.29l-.77-.17c-.44-.09-.88-.15-1.32-.2-.22,0-.44-.07-.66-.09-.67-.06-1.35-.1-2-.1a21.31,21.31,0,0,0-19.63,13,19.07,19.07,0,0,0-.71,2A21.35,21.35,0,0,0,1,59.06a20.17,20.17,0,0,0,1.61,3.82A21.34,21.34,0,0,0,21.3,74c.67,0,1.33,0,2-.1l.28,0c.62-.06,1.23-.16,1.84-.28l.35-.07a17.08,17.08,0,0,0,1.74-.45l.33-.1c.58-.19,1.15-.39,1.7-.63l.2-.09q.76-.33,1.5-.72l.31-.16.47-.27,81.16,66.11c-.09.27-.18.54-.26.81s-.2.75-.28,1.12-.13.53-.18.8c-.08.43-.14.87-.2,1.31,0,.22-.07.45-.09.68-.06.67-.1,1.35-.1,2h0c0,.69,0,1.38.1,2.05,0,.23.06.44.09.66.06.45.12.9.2,1.34,0,.26.11.51.17.76.09.4.19.79.31,1.19.07.25.15.5.24.76s.26.74.41,1.11.19.49.3.73.34.73.52,1.09l.35.66c.21.38.44.75.68,1.12l.33.53c.37.53.75,1.05,1.16,1.54h0c.41.49.84,1,1.29,1.42l.46.43c.32.3.63.6,1,.88s.39.31.59.46.62.49,1,.71l.65.44c.33.21.66.41,1,.6s.46.26.69.38.72.36,1.08.53.46.21.69.3c.41.17.83.32,1.24.46.21.07.41.15.62.21.63.19,1.27.36,1.92.49a21.13,21.13,0,0,0,8.58,0c.66-.13,1.3-.3,1.93-.49.21-.06.41-.14.61-.21.42-.14.83-.29,1.24-.46.23-.09.46-.2.69-.3s.73-.34,1.08-.53.46-.25.69-.38.67-.39,1-.6l.65-.44c.33-.23.65-.46,1-.71l.58-.46c.33-.28.65-.58,1-.88l.46-.43c.45-.45.88-.93,1.29-1.42h0c.41-.49.79-1,1.15-1.54.12-.17.22-.35.34-.53.23-.37.46-.74.68-1.12.12-.22.23-.44.34-.66s.36-.72.52-1.09.21-.48.31-.73.28-.74.41-1.11l.24-.76c.11-.4.21-.79.3-1.19.06-.25.12-.5.17-.76.09-.44.15-.89.21-1.34,0-.22.06-.43.08-.66a19.81,19.81,0,0,0,.11-2.05,21.32,21.32,0,0,0-1-6.33c-.21-.67-.45-1.32-.72-2a21.31,21.31,0,0,0-19.62-13,19,19,0,0,0-2,.11l-.27,0c-.62.07-1.23.16-1.84.28l-.35.07c-.59.13-1.17.27-1.74.45l-.33.11c-.58.18-1.15.39-1.71.62l-.19.09q-.77.33-1.5.72l-.32.16-.46.27L41.48,59.5c.09-.28.17-.55.25-.82s.2-.75.29-1.12.13-.53.18-.8c.08-.43.14-.87.2-1.3,0,0,0-.05,0-.07L135,33.23c.19.28.4.53.6.8l.19.26c.29.38.59.74.91,1.09l.31.35c.3.33.61.65.94,1l.39.36c.33.29.65.58,1,.85l.4.31c.59.44,1.2.86,1.83,1.24.25.16.5.33.77.47s.53.28.8.41.62.31.94.45.54.22.81.33.68.26,1,.38l.79.25c.38.11.76.2,1.15.29l.77.17c.43.08.87.15,1.32.2.22,0,.43.07.66.09.67.06,1.34.1,2,.1a21.29,21.29,0,0,0,19.62-13,20.55,20.55,0,0,0,.72-1.95,21.37,21.37,0,0,0,1-6.33,18.85,18.85,0,0,0-.11-2C173.8,19.09,173.76,18.89,173.74,18.68Z"/></g></g></svg>