<svg xmlns="http://www.w3.org/2000/svg" viewBox="0 0 50.96 50.91"><defs><style>.cls-1{fill:#fff;}</style></defs><title>Recurso 5</title><g id="Capa_2" data-name="Capa 2"><g id="TELEG"><path class="cls-1" d="M25.68,0A25.18,25.18,0,0,0,0,25.3,25.19,25.19,0,0,0,25.06,50.91C39.74,51.1,50.63,39.67,51,25.76A25.42,25.42,0,0,0,25.68,0ZM37.82,17.86l-3.18,15c-.31,1.45-.61,2.89-.93,4.34a3.44,3.44,0,0,1-.24.75,1,1,0,0,1-1.37.65A4,4,0,0,1,31,38c-1.91-1.4-3.82-2.83-5.72-4.24l-.25-.18L23.51,35.1c-.48.46-1,.93-1.43,1.38a2.28,2.28,0,0,1-1.39.69,2.8,2.8,0,0,1,0-.29c.15-2,.3-4,.47-5.94a.75.75,0,0,1,.23-.46q5.67-5.22,11.37-10.41a1.31,1.31,0,0,0,.24-.23,1.28,1.28,0,0,0,.14-.34,1,1,0,0,0-.36-.11,1.22,1.22,0,0,0-.48.18Q26.44,23.24,20.58,27c-.91.57-1.82,1.13-2.72,1.71a.55.55,0,0,1-.54.07L11,26.82c-.32-.1-.66-.24-.71-.63a.85.85,0,0,1,.49-.85,9.67,9.67,0,0,1,1.13-.53L35,15.9l1.14-.44A1.26,1.26,0,0,1,38,16.77,6.85,6.85,0,0,1,37.82,17.86Z"/></g></g></svg>