<svg xmlns="http://www.w3.org/2000/svg" viewBox="0 0 51.45 41.95"><defs><style>.cls-1{fill:#fff;}</style></defs><title>Recurso 8</title><g id="Capa_2" data-name="Capa 2"><g id="TWWT"><path class="cls-1" d="M0,37.24a21.3,21.3,0,0,0,15.52-4.4,10.71,10.71,0,0,1-9.83-7.36,10.6,10.6,0,0,0,4.69-.2,10.65,10.65,0,0,1-6.06-3.75A10.5,10.5,0,0,1,2,14.77a10.23,10.23,0,0,0,4.71,1.28A10.67,10.67,0,0,1,2.33,9.62,10.48,10.48,0,0,1,3.47,2,30.33,30.33,0,0,0,25.32,13c-.06-.38-.12-.69-.16-1a10.42,10.42,0,0,1,2.56-8.46A10,10,0,0,1,34,.13a10.33,10.33,0,0,1,9.08,3,.67.67,0,0,0,.69.18A21.62,21.62,0,0,0,50,.86L50.1.79a10.69,10.69,0,0,1-4.55,5.78,11.91,11.91,0,0,0,3-.55c1-.29,2-.64,2.9-1a.28.28,0,0,1-.05.09,21.66,21.66,0,0,1-5,5.15.38.38,0,0,0-.19.39A26,26,0,0,1,46,15.75a31.39,31.39,0,0,1-4.71,12.71A29.25,29.25,0,0,1,33,37a28.33,28.33,0,0,1-9.69,4.17,31.44,31.44,0,0,1-5.46.74,31.28,31.28,0,0,1-5.56-.2A29.89,29.89,0,0,1,.07,37.31Z"/></g></g></svg>